<svg width="240" height="240" viewBox="0 0 240 240" fill="none" xmlns="http://www.w3.org/2000/svg">
<g filter="url(#filter0_d)">
<rect x="64" y="40" width="112" height="112" rx="16" fill="#E2B358"/>
</g>
<path fill-rule="evenodd" clip-rule="evenodd" d="M102.646 76.9105C102.331 77.9247 101.423 78.6724 100.308 78.6724C98.9342 78.6724 97.8215 77.5546 97.8215 76.1777C97.8215 74.8007 98.9342 73.6854 100.308 73.6854C101.017 73.6854 101.649 73.9938 102.102 74.4701C102.71 74.2159 103.365 73.8877 104.042 73.5423C106.169 72.4639 108.581 71.2424 111.385 71.2424C113.836 71.2424 115.545 72.1777 116.704 73.1845C117.223 72.6095 117.888 72.1777 118.644 71.9358C117.726 71.4423 117.081 70.5046 117.081 69.3893C117.081 67.773 120 64 120 64C120 64 122.919 67.773 122.919 69.3893C122.919 70.5022 122.274 71.4423 121.356 71.9358C122.112 72.1801 122.777 72.6095 123.296 73.1845C124.455 72.1777 126.164 71.2424 128.615 71.2424C131.419 71.2424 133.829 72.4639 135.956 73.5423C136.633 73.8853 137.29 74.2134 137.898 74.4701C138.351 73.9914 138.983 73.6854 139.692 73.6854C141.066 73.6854 142.178 74.8007 142.178 76.1777C142.178 77.5546 141.066 78.67 139.692 78.67C138.577 78.67 137.669 77.9223 137.354 76.9081C136.539 76.5972 135.705 76.1777 134.846 75.7434C132.965 74.7909 130.831 73.7101 128.615 73.7101C126.486 73.7101 125.157 74.6996 124.399 75.5361L124.41 75.6176L124.41 75.6177C124.437 75.8023 124.463 75.9862 124.463 76.1777C124.463 78.6477 122.464 80.6514 120 80.6514C117.536 80.6514 115.537 78.6477 115.537 76.1777C115.537 75.9848 115.564 75.7976 115.59 75.6111L115.601 75.5336C114.841 74.6946 113.511 73.7101 111.385 73.7101C109.177 73.7101 107.049 74.7861 105.171 75.7362L105.152 75.7458C104.295 76.1801 103.461 76.5996 102.646 76.9105ZM139.692 112.089C145.391 112.089 150.196 108.415 152 103.321H149.159L140.844 81.2289C140.482 80.2665 138.9 80.2665 138.54 81.2289L130.225 103.321H127.385C129.189 108.412 133.994 112.089 139.692 112.089ZM134.769 128V125.532C134.769 124.173 133.664 123.065 132.308 123.062H127.353C127.222 119.983 125.228 117.411 122.462 116.427V87.4966C123.759 86.6749 124.628 85.2338 124.628 83.5805H122.462H117.538H115.372C115.372 85.2338 116.241 86.6749 117.538 87.4966V116.429C114.772 117.414 112.778 119.985 112.647 123.065H107.692C106.336 123.065 105.231 124.173 105.231 125.532V128H134.769ZM146.528 103.321L139.692 85.1622L132.857 103.324H146.528V103.321ZM100.308 112.091C94.6092 112.091 89.8043 108.415 88 103.324H90.8406L99.1557 81.2313C99.5151 80.269 101.098 80.269 101.46 81.2313L109.775 103.324H112.615C110.811 108.415 106.006 112.091 100.308 112.091ZM100.308 85.1622L107.143 103.321V103.324H93.472L100.308 85.1622Z" fill="white"/>
<defs>
<filter id="filter0_d" x="0" y="0" width="240" height="240" filterUnits="userSpaceOnUse" color-interpolation-filters="sRGB">
<feFlood flood-opacity="0" result="BackgroundImageFix"/>
<feColorMatrix in="SourceAlpha" type="matrix" values="0 0 0 0 0 0 0 0 0 0 0 0 0 0 0 0 0 0 127 0"/>
<feOffset dy="24"/>
<feGaussianBlur stdDeviation="32"/>
<feColorMatrix type="matrix" values="0 0 0 0 0.160784 0 0 0 0 0.156863 0 0 0 0 0 0 0 0 0.0985337 0"/>
<feBlend mode="normal" in2="BackgroundImageFix" result="effect1_dropShadow"/>
<feBlend mode="normal" in="SourceGraphic" in2="effect1_dropShadow" result="shape"/>
</filter>
</defs>
</svg>
