<svg width="392" height="120" viewBox="0 0 392 120" fill="none" xmlns="http://www.w3.org/2000/svg">
<path d="M40.9187 85.618L25.4558 50.5618H25.6662L23.9832 47.3258L6.73212 85.618H0L2.62973 100.449H43.6536L43.9691 98.427L46.8093 85.618H40.9187ZM23.878 52.1798L38.8149 85.618H8.73071L23.878 52.1798ZM41.3394 95.0562H5.46985L4.52314 89.6629H42.2861L41.3394 95.0562Z" fill="#333333"/>
<path d="M144.215 85.618L127.174 47.8652L125.596 50.5618H125.806L126.017 50.9663V50.5618H125.491L109.923 85.618H103.191L106.346 100.449H147.37L147.686 98.427L150 85.618H144.215ZM127.174 52.1798L142.216 85.618H112.132L127.174 52.1798ZM144.635 95.0562H108.766L107.819 89.6629H145.582L144.635 95.0562Z" fill="#333333"/>
<path d="M126.017 43.8202H87.6227H63.9551H25.561L56.5919 72.9438L44.7055 119.865L75.8415 91.0112L106.872 120L94.986 72.9438L126.017 43.8202ZM95.6171 100.18L75.8415 81.7079L55.9607 100.18L63.5344 70.382L43.6536 51.9101H68.2679H83.4151H107.924L88.0435 70.382L95.6171 100.18Z" fill="#333333"/>
<path d="M75.8415 38.8315C84.1515 38.8315 90.9888 30.2023 90.9888 19.4157C90.9888 8.76405 84.2567 0 75.8415 0C67.4264 0 60.6942 8.76405 60.6942 19.4157C60.6942 30.2023 67.4264 38.8315 75.8415 38.8315ZM75.8415 7.55056C80.9958 7.55056 85.0982 12.9438 85.0982 19.4157C85.0982 26.0225 80.8906 31.2809 75.8415 31.2809C70.6872 31.2809 66.5849 25.8876 66.5849 19.4157C66.4797 12.9438 70.6872 7.55056 75.8415 7.55056Z" fill="#333333"/>
<line x1="163" y1="73.5" x2="352" y2="73.5" stroke="#333333" stroke-width="3"/>
<path d="M163 67.376C164.067 67.2053 164.941 66.992 165.624 66.736C166.307 66.4373 166.968 66.0107 167.608 65.456L172.92 31.856C172.579 31.4293 172.003 31.0453 171.192 30.704C170.424 30.32 169.592 30.064 168.696 29.936L169.08 27.312H188.024L187.64 29.936C186.445 30.1493 185.421 30.4053 184.568 30.704C183.757 30.96 183.011 31.344 182.328 31.856L177.208 63.856C177.123 64.624 177.272 65.1787 177.656 65.52C178.04 65.8613 178.787 66.032 179.896 66.032H186.296C187.832 64.112 189.176 61.5093 190.328 58.224C191.395 57.9253 192.376 57.776 193.272 57.776C193.784 57.776 194.253 57.84 194.68 57.968L192.12 70H162.68L163 67.376Z" fill="#E2B358"/>
<path d="M212.448 70.448C208.608 70.448 205.557 69.3387 203.296 67.12C201.035 64.8587 199.904 61.808 199.904 57.968C199.904 54.2133 200.651 50.864 202.144 47.92C203.637 44.976 205.749 42.672 208.48 41.008C211.253 39.344 214.453 38.512 218.08 38.512C221.579 38.512 224.224 39.1307 226.016 40.368C227.808 41.6053 228.704 43.184 228.704 45.104C228.704 48.688 226.976 51.504 223.52 53.552C220.064 55.5573 215.243 56.56 209.056 56.56C208.885 57.7973 208.8 58.864 208.8 59.76C208.8 61.7653 209.333 63.3227 210.4 64.432C211.467 65.4987 212.981 66.032 214.944 66.032C216.523 66.032 218.187 65.712 219.936 65.072C221.728 64.432 223.285 63.5787 224.608 62.512L226.72 65.008C224.672 66.7147 222.389 68.0587 219.872 69.04C217.397 69.9787 214.923 70.448 212.448 70.448ZM209.632 52.848C211.552 52.8053 213.365 52.4213 215.072 51.696C216.779 50.9707 218.144 50.032 219.168 48.88C220.235 47.6853 220.768 46.4053 220.768 45.04C220.768 43.9733 220.491 43.1413 219.936 42.544C219.381 41.9467 218.549 41.648 217.44 41.648C215.307 41.648 213.643 42.5867 212.448 44.464C211.296 46.2987 210.357 49.0933 209.632 52.848ZM271.282 42.8C270.343 42.8 269.298 43.44 268.146 44.72C267.037 45.9573 265.991 47.664 265.01 49.84C264.071 51.9733 263.41 54.2987 263.026 56.816L260.978 70H251.89L253.234 61.936C254.087 56.8587 254.685 53.1893 255.026 50.928C255.367 48.6667 255.538 47.152 255.538 46.384C255.538 45.2747 255.303 44.4 254.834 43.76C254.365 43.12 253.703 42.8 252.85 42.8C251.826 42.8 250.717 43.5253 249.522 44.976C248.37 46.384 247.303 48.2187 246.322 50.48C245.383 52.7413 244.722 55.0667 244.338 57.456L242.29 70H233.266L233.714 67.184C235.933 53.744 237.042 46.6827 237.042 46C237.042 44.1227 236.189 43.184 234.482 43.184C234.269 43.184 233.821 43.2267 233.138 43.312L232.946 40.816C234.482 40.176 236.466 39.6427 238.898 39.216C241.373 38.7893 243.549 38.5547 245.426 38.512L246.386 39.088L246.194 44.848C248.882 40.624 252.317 38.512 256.498 38.512C258.802 38.512 260.658 39.088 262.066 40.24C263.474 41.392 264.306 42.9707 264.562 44.976C267.293 40.6667 270.749 38.512 274.93 38.512C277.49 38.512 279.474 39.216 280.882 40.624C282.333 41.9893 283.058 43.9093 283.058 46.384C283.058 47.152 282.845 48.88 282.418 51.568C282.034 54.2133 281.778 55.92 281.65 56.688C280.925 61.04 280.562 63.5147 280.562 64.112C280.562 65.136 281.031 65.648 281.97 65.648C282.695 65.648 283.677 65.3067 284.914 64.624L285.746 66.928C284.893 67.7813 283.549 68.5707 281.714 69.296C279.879 70.0213 278.237 70.384 276.786 70.384C275.037 70.384 273.693 69.9573 272.754 69.104C271.858 68.208 271.41 66.8 271.41 64.88C271.41 63.6427 271.858 60.5067 272.754 55.472C272.882 54.6613 273.117 53.168 273.458 50.992C273.799 48.7733 273.97 47.3227 273.97 46.64C273.97 45.4027 273.735 44.464 273.266 43.824C272.797 43.1413 272.135 42.8 271.282 42.8ZM297.274 70.384C295.354 70.384 293.988 69.9147 293.178 68.976C292.367 68.0373 291.962 66.6507 291.962 64.816C291.962 63.5787 292.495 59.76 293.562 53.36C294.287 48.9227 294.65 46.448 294.65 45.936C294.65 44.1013 293.796 43.184 292.09 43.184C291.876 43.184 291.428 43.2267 290.746 43.312L290.554 40.816C292.09 40.176 294.074 39.6427 296.506 39.216C298.98 38.7893 301.156 38.5547 303.034 38.512L304.762 39.408L303.93 44.784C301.967 56.9013 300.986 63.344 300.986 64.112C300.986 65.136 301.476 65.648 302.458 65.648C303.183 65.648 304.164 65.3067 305.402 64.624L306.234 66.928C305.38 67.7813 304.036 68.5707 302.202 69.296C300.367 70.0213 298.724 70.384 297.274 70.384ZM300.922 34.16C299.684 34.16 298.682 33.84 297.914 33.2C297.146 32.56 296.762 31.6427 296.762 30.448C296.762 28.8693 297.231 27.6107 298.17 26.672C299.151 25.6907 300.452 25.2 302.074 25.2C303.354 25.2 304.356 25.5413 305.082 26.224C305.85 26.864 306.234 27.76 306.234 28.912C306.234 30.4907 305.743 31.7707 304.762 32.752C303.823 33.6907 302.543 34.16 300.922 34.16ZM336.756 70.384C334.836 70.384 333.471 69.9147 332.66 68.976C331.85 68.0373 331.444 66.672 331.444 64.88C331.444 63.6853 331.871 60.4853 332.724 55.28C333.535 50.672 333.94 47.792 333.94 46.64C333.94 45.4027 333.706 44.464 333.236 43.824C332.767 43.1413 332.106 42.8 331.252 42.8C330.228 42.8 329.119 43.5253 327.924 44.976C326.772 46.384 325.706 48.2187 324.724 50.48C323.786 52.7413 323.124 55.0667 322.74 57.456L320.692 70H311.668L312.82 62.832C314.57 52.0373 315.444 46.4053 315.444 45.936C315.444 44.1013 314.591 43.184 312.884 43.184C312.671 43.184 312.223 43.2267 311.54 43.312L311.348 40.816C312.884 40.176 314.868 39.6427 317.3 39.216C319.775 38.7893 321.951 38.5547 323.828 38.512L324.852 39.088L324.596 44.912C327.242 40.6453 330.676 38.512 334.9 38.512C337.46 38.512 339.444 39.216 340.852 40.624C342.303 41.9893 343.028 43.9093 343.028 46.384C343.028 47.1947 342.58 50.3733 341.684 55.92C340.916 60.784 340.532 63.4933 340.532 64.048C340.532 65.1147 341.002 65.648 341.94 65.648C342.666 65.648 343.647 65.3067 344.884 64.624L345.716 66.928C344.863 67.7813 343.519 68.5707 341.684 69.296C339.85 70.0213 338.207 70.384 336.756 70.384ZM358.583 84.016C351.329 84.016 347.703 81.7973 347.703 77.36C347.703 75.7813 348.193 74.48 349.175 73.456C350.199 72.4747 351.479 71.984 353.015 71.984C353.911 71.984 354.7 72.1973 355.383 72.624C356.108 73.0933 356.641 73.776 356.983 74.672C356.556 74.928 356.193 75.3333 355.895 75.888C355.639 76.4427 355.511 77.0187 355.511 77.616C355.511 78.5547 355.852 79.2587 356.535 79.728C357.26 80.24 358.263 80.496 359.543 80.496C362.401 80.496 364.535 79.344 365.943 77.04C367.393 74.7787 368.332 71.664 368.759 67.696L368.823 66.928C366.775 69.4453 364.129 70.704 360.887 70.704C359.052 70.704 357.367 70.256 355.831 69.36C354.295 68.464 353.057 67.0987 352.119 65.264C351.18 63.3867 350.711 61.104 350.711 58.416C350.711 52.3147 352.225 47.472 355.255 43.888C358.327 40.304 362.615 38.512 368.119 38.512C370.124 38.512 372.343 38.9387 374.775 39.792C376.183 38.9813 377.975 38.576 380.151 38.576C380.663 38.576 381.345 38.6187 382.199 38.704L377.655 66.864C376.716 72.7093 374.668 77.0187 371.511 79.792C368.353 82.608 364.044 84.016 358.583 84.016ZM363.767 66.8C365.345 66.8 366.732 65.6053 367.927 63.216C369.121 60.784 370.081 57.456 370.807 53.232L372.663 42.224C371.639 41.84 370.615 41.648 369.591 41.648C367.841 41.648 366.22 42.288 364.727 43.568C363.276 44.8053 362.103 46.6827 361.207 49.2C360.353 51.6747 359.927 54.7253 359.927 58.352C359.927 61.3387 360.268 63.4933 360.951 64.816C361.676 66.1387 362.615 66.8 363.767 66.8Z" fill="#333333"/>
<path d="M212.363 95.24C210.459 95.24 209.011 94.712 208.019 93.656C207.043 92.584 206.555 91.04 206.555 89.024C206.555 85.824 207.267 83.328 208.691 81.536C210.131 79.728 212.219 78.824 214.955 78.824C216.299 78.824 217.371 79.088 218.171 79.616C218.987 80.144 219.395 80.832 219.395 81.68C219.395 82.32 219.163 82.88 218.699 83.36C218.251 83.824 217.723 84.056 217.115 84.056C216.731 84.056 216.379 83.952 216.059 83.744C215.755 83.536 215.555 83.272 215.459 82.952C215.859 82.424 216.059 81.92 216.059 81.44C216.059 81.024 215.931 80.696 215.675 80.456C215.435 80.216 215.091 80.096 214.643 80.096C213.683 80.096 212.891 80.552 212.267 81.464C211.643 82.376 211.195 83.52 210.923 84.896C210.651 86.272 210.515 87.672 210.515 89.096C210.515 92.104 211.483 93.608 213.419 93.608C214.715 93.608 216.027 93.008 217.355 91.808L218.027 92.576C217.131 93.424 216.187 94.08 215.195 94.544C214.203 95.008 213.259 95.24 212.363 95.24ZM310.503 94.016C310.903 93.952 311.231 93.872 311.487 93.776C311.743 93.664 311.991 93.504 312.231 93.296L314.223 80.696C314.095 80.536 313.879 80.392 313.575 80.264C313.287 80.12 312.975 80.024 312.639 79.976L312.783 78.992H319.887L319.743 79.976C319.295 80.056 318.911 80.152 318.591 80.264C318.287 80.36 318.007 80.504 317.751 80.696L315.831 92.696C315.799 92.984 315.855 93.192 315.999 93.32C316.143 93.448 316.423 93.512 316.839 93.512H319.239C319.815 92.792 320.319 91.816 320.751 90.584C321.151 90.472 321.519 90.416 321.855 90.416C322.047 90.416 322.223 90.44 322.383 90.488L321.423 95H310.383L310.503 94.016Z" fill="#E2B358"/>
<path d="M223.823 95.18C222.299 95.18 221.165 94.778 220.421 93.974C219.689 93.158 219.323 91.988 219.323 90.464C219.323 88.952 219.569 87.62 220.061 86.468C220.565 85.316 221.297 84.416 222.257 83.768C223.217 83.12 224.363 82.796 225.695 82.796C227.219 82.796 228.347 83.204 229.079 84.02C229.823 84.824 230.195 85.988 230.195 87.512C230.195 89.024 229.943 90.356 229.439 91.508C228.947 92.66 228.221 93.56 227.261 94.208C226.301 94.856 225.155 95.18 223.823 95.18ZM224.003 94.1C224.723 94.1 225.335 93.71 225.839 92.93C226.355 92.138 226.739 91.19 226.991 90.086C227.255 88.982 227.387 87.98 227.387 87.08C227.387 85.964 227.237 85.148 226.937 84.632C226.637 84.104 226.163 83.84 225.515 83.84C224.795 83.84 224.177 84.236 223.661 85.028C223.157 85.808 222.773 86.75 222.509 87.854C222.257 88.946 222.131 89.948 222.131 90.86C222.131 91.976 222.281 92.798 222.581 93.326C222.881 93.842 223.355 94.1 224.003 94.1ZM230.329 94.262C230.617 94.214 230.851 94.154 231.031 94.082C231.223 93.998 231.421 93.878 231.625 93.722L233.119 84.272C233.023 84.152 232.861 84.044 232.633 83.948C232.417 83.84 232.183 83.768 231.931 83.732L232.039 82.994H237.115C239.875 82.994 241.255 83.882 241.255 85.658C241.255 86.546 240.955 87.284 240.355 87.872C239.767 88.46 238.975 88.892 237.979 89.168C238.519 89.42 238.873 89.852 239.041 90.464L239.941 93.524C240.001 93.74 240.127 93.902 240.319 94.01C240.511 94.106 240.787 94.19 241.147 94.262L241.057 95H238.789C238.381 95 238.033 94.898 237.745 94.694C237.469 94.49 237.289 94.196 237.205 93.812L236.269 90.284C236.137 89.804 235.741 89.564 235.081 89.564H234.937L234.271 93.722C234.487 93.95 234.889 94.13 235.477 94.262L235.387 95H230.239L230.329 94.262ZM235.279 88.466C236.047 88.466 236.677 88.328 237.169 88.052C237.673 87.776 238.033 87.434 238.249 87.026C238.477 86.606 238.591 86.174 238.591 85.73C238.591 85.214 238.453 84.812 238.177 84.524C237.913 84.236 237.457 84.092 236.809 84.092C236.509 84.092 236.287 84.11 236.143 84.146C236.011 84.182 235.909 84.248 235.837 84.344C235.777 84.44 235.729 84.596 235.693 84.812L235.099 88.466H235.279ZM241.685 94.262C241.973 94.214 242.207 94.154 242.387 94.082C242.579 93.998 242.777 93.878 242.981 93.722L244.475 84.272C244.379 84.152 244.217 84.044 243.989 83.948C243.773 83.84 243.539 83.768 243.287 83.732L243.395 82.994H248.561C251.369 82.994 252.773 83.936 252.773 85.82C252.773 86.792 252.473 87.59 251.873 88.214C251.273 88.838 250.493 89.294 249.533 89.582C248.585 89.87 247.565 90.014 246.473 90.014H246.203L245.627 93.722C245.735 93.83 245.915 93.926 246.167 94.01C246.431 94.082 246.773 94.166 247.193 94.262L247.103 95H241.595L241.685 94.262ZM246.743 88.826C247.523 88.826 248.165 88.676 248.669 88.376C249.173 88.076 249.539 87.704 249.767 87.26C249.995 86.804 250.109 86.342 250.109 85.874C250.109 85.322 249.947 84.884 249.623 84.56C249.311 84.236 248.819 84.074 248.147 84.074C247.715 84.074 247.433 84.122 247.301 84.218C247.169 84.314 247.079 84.518 247.031 84.83L246.401 88.826H246.743ZM257.379 95.18C255.855 95.18 254.721 94.778 253.977 93.974C253.245 93.158 252.879 91.988 252.879 90.464C252.879 88.952 253.125 87.62 253.617 86.468C254.121 85.316 254.853 84.416 255.813 83.768C256.773 83.12 257.919 82.796 259.251 82.796C260.775 82.796 261.903 83.204 262.635 84.02C263.379 84.824 263.751 85.988 263.751 87.512C263.751 89.024 263.499 90.356 262.995 91.508C262.503 92.66 261.777 93.56 260.817 94.208C259.857 94.856 258.711 95.18 257.379 95.18ZM257.559 94.1C258.279 94.1 258.891 93.71 259.395 92.93C259.911 92.138 260.295 91.19 260.547 90.086C260.811 88.982 260.943 87.98 260.943 87.08C260.943 85.964 260.793 85.148 260.493 84.632C260.193 84.104 259.719 83.84 259.071 83.84C258.351 83.84 257.733 84.236 257.217 85.028C256.713 85.808 256.329 86.75 256.065 87.854C255.813 88.946 255.687 89.948 255.687 90.86C255.687 91.976 255.837 92.798 256.137 93.326C256.437 93.842 256.911 94.1 257.559 94.1ZM263.886 94.262C264.174 94.214 264.408 94.154 264.588 94.082C264.78 93.998 264.978 93.878 265.182 93.722L266.676 84.272C266.58 84.152 266.418 84.044 266.19 83.948C265.974 83.84 265.74 83.768 265.488 83.732L265.596 82.994H270.672C273.432 82.994 274.812 83.882 274.812 85.658C274.812 86.546 274.512 87.284 273.912 87.872C273.324 88.46 272.532 88.892 271.536 89.168C272.076 89.42 272.43 89.852 272.598 90.464L273.498 93.524C273.558 93.74 273.684 93.902 273.876 94.01C274.068 94.106 274.344 94.19 274.704 94.262L274.614 95H272.346C271.938 95 271.59 94.898 271.302 94.694C271.026 94.49 270.846 94.196 270.762 93.812L269.826 90.284C269.694 89.804 269.298 89.564 268.638 89.564H268.494L267.828 93.722C268.044 93.95 268.446 94.13 269.034 94.262L268.944 95H263.796L263.886 94.262ZM268.836 88.466C269.604 88.466 270.234 88.328 270.726 88.052C271.23 87.776 271.59 87.434 271.806 87.026C272.034 86.606 272.148 86.174 272.148 85.73C272.148 85.214 272.01 84.812 271.734 84.524C271.47 84.236 271.014 84.092 270.366 84.092C270.066 84.092 269.844 84.11 269.7 84.146C269.568 84.182 269.466 84.248 269.394 84.344C269.334 84.44 269.286 84.596 269.25 84.812L268.656 88.466H268.836ZM274.341 94.28C275.013 94.232 275.427 94.052 275.583 93.74L281.091 82.994H282.963L285.123 93.56C285.171 93.752 285.273 93.908 285.429 94.028C285.597 94.136 285.825 94.22 286.113 94.28L286.041 95H281.073L281.181 94.28C281.769 94.196 282.165 94.046 282.369 93.83L281.937 91.256H278.229L276.969 93.74C277.269 94.016 277.749 94.196 278.409 94.28L278.319 95H274.251L274.341 94.28ZM281.739 90.122L281.019 85.802L278.805 90.122H281.739ZM286.424 94.262C287.216 94.142 287.768 93.962 288.08 93.722L289.61 84.11C289.094 84.134 288.698 84.158 288.422 84.182L287.954 84.218C287.726 84.47 287.516 84.794 287.324 85.19C287.132 85.574 287 85.946 286.928 86.306C286.712 86.342 286.496 86.36 286.28 86.36C286.076 86.36 285.878 86.342 285.686 86.306L286.226 82.922C287.078 82.97 288.704 82.994 291.104 82.994C291.968 82.994 292.862 82.988 293.786 82.976C294.722 82.952 295.46 82.934 296 82.922L295.46 86.306C295.268 86.342 295.07 86.36 294.866 86.36C294.65 86.36 294.434 86.342 294.218 86.306C294.218 85.382 294.116 84.692 293.912 84.236C293.288 84.152 292.736 84.104 292.256 84.092L290.726 93.722C290.834 93.83 291.014 93.926 291.266 94.01C291.53 94.082 291.872 94.166 292.292 94.262L292.202 95H286.334L286.424 94.262ZM294.999 94.262C295.287 94.214 295.521 94.154 295.701 94.082C295.893 93.998 296.091 93.878 296.295 93.722L297.789 84.272C297.693 84.152 297.531 84.044 297.303 83.948C297.087 83.84 296.853 83.768 296.601 83.732L296.709 82.994H305.529L305.133 85.946C304.845 86.03 304.569 86.072 304.305 86.072C304.173 86.072 304.041 86.054 303.909 86.018C303.885 85.202 303.753 84.56 303.513 84.092H300.471L299.787 88.304L301.425 88.232C301.641 88.22 301.857 88.106 302.073 87.89C302.289 87.662 302.469 87.374 302.613 87.026H303.369L302.775 90.752H302.019C301.935 90.272 301.827 89.936 301.695 89.744C301.575 89.54 301.413 89.432 301.209 89.42L299.625 89.348L298.905 93.884H302.271C302.703 93.344 303.081 92.612 303.405 91.688C303.705 91.604 303.981 91.562 304.233 91.562C304.377 91.562 304.509 91.58 304.629 91.616L303.909 95H294.909L294.999 94.262ZM321.978 94.28C322.65 94.232 323.064 94.052 323.22 93.74L328.728 82.994H330.6L332.76 93.56C332.808 93.752 332.91 93.908 333.066 94.028C333.234 94.136 333.462 94.22 333.75 94.28L333.678 95H328.71L328.818 94.28C329.406 94.196 329.802 94.046 330.006 93.83L329.574 91.256H325.866L324.606 93.74C324.906 94.016 325.386 94.196 326.046 94.28L325.956 95H321.888L321.978 94.28ZM329.376 90.122L328.656 85.802L326.442 90.122H329.376ZM337.689 95.108C336.921 95.108 336.333 95.072 335.925 95L334.557 84.272C334.341 84.008 334.011 83.828 333.567 83.732L333.675 82.994H338.589L338.481 83.714C338.181 83.75 337.935 83.798 337.743 83.858C337.563 83.918 337.413 84.002 337.293 84.11L338.175 91.67L341.937 83.318C342.405 83.162 342.963 83.084 343.611 83.084L344.691 91.67L348.075 84.272C347.643 83.96 347.163 83.774 346.635 83.714L346.725 82.994H350.613L350.523 83.732C350.259 83.756 350.037 83.81 349.857 83.894C349.677 83.978 349.539 84.116 349.443 84.308L344.241 95.09C343.461 95.09 342.873 95.06 342.477 95L341.397 87.26L337.689 95.108Z" fill="#333333"/>
</svg>
