<svg width="230" height="197" viewBox="0 0 230 197" fill="none" xmlns="http://www.w3.org/2000/svg">
<path d="M87.9187 85.618L72.4558 50.5618H72.6662L70.9832 47.3258L53.7321 85.618H47L49.6297 100.449H90.6536L90.9691 98.427L93.8093 85.618H87.9187ZM70.878 52.1798L85.8149 85.618H55.7307L70.878 52.1798ZM88.3394 95.0562H52.4698L51.5231 89.6629H89.2861L88.3394 95.0562Z" fill="#333333"/>
<path d="M191.215 85.618L174.174 47.8652L172.596 50.5618H172.806L173.017 50.9663V50.5618H172.491L156.923 85.618H150.191L153.346 100.449H194.37L194.686 98.427L197 85.618H191.215ZM174.174 52.1798L189.216 85.618H159.132L174.174 52.1798ZM191.635 95.0562H155.766L154.819 89.6629H192.582L191.635 95.0562Z" fill="#333333"/>
<path d="M173.017 43.8202H134.623H110.955H72.561L103.592 72.9438L91.7055 119.865L122.842 91.0112L153.872 120L141.986 72.9438L173.017 43.8202ZM142.617 100.18L122.842 81.7079L102.961 100.18L110.534 70.382L90.6536 51.9101H115.268H130.415H154.924L135.043 70.382L142.617 100.18Z" fill="#333333"/>
<path d="M122.842 38.8315C131.151 38.8315 137.989 30.2023 137.989 19.4157C137.989 8.76405 131.257 0 122.842 0C114.426 0 107.694 8.76405 107.694 19.4157C107.694 30.2023 114.426 38.8315 122.842 38.8315ZM122.842 7.55056C127.996 7.55056 132.098 12.9438 132.098 19.4157C132.098 26.0225 127.891 31.2809 122.842 31.2809C117.687 31.2809 113.585 25.8876 113.585 19.4157C113.48 12.9438 117.687 7.55056 122.842 7.55056Z" fill="#333333"/>
<line x1="1" y1="170.5" x2="190" y2="170.5" stroke="#333333" stroke-width="3"/>
<path d="M1 164.376C2.06667 164.205 2.94133 163.992 3.624 163.736C4.30667 163.437 4.968 163.011 5.608 162.456L10.92 128.856C10.5787 128.429 10.0027 128.045 9.192 127.704C8.424 127.32 7.592 127.064 6.696 126.936L7.08 124.312H26.024L25.64 126.936C24.4453 127.149 23.4213 127.405 22.568 127.704C21.7573 127.96 21.0107 128.344 20.328 128.856L15.208 160.856C15.1227 161.624 15.272 162.179 15.656 162.52C16.04 162.861 16.7867 163.032 17.896 163.032H24.296C25.832 161.112 27.176 158.509 28.328 155.224C29.3947 154.925 30.376 154.776 31.272 154.776C31.784 154.776 32.2533 154.84 32.68 154.968L30.12 167H0.68L1 164.376Z" fill="#E2B358"/>
<path d="M50.448 167.448C46.608 167.448 43.5573 166.339 41.296 164.12C39.0347 161.859 37.904 158.808 37.904 154.968C37.904 151.213 38.6507 147.864 40.144 144.92C41.6373 141.976 43.7493 139.672 46.48 138.008C49.2533 136.344 52.4533 135.512 56.08 135.512C59.5787 135.512 62.224 136.131 64.016 137.368C65.808 138.605 66.704 140.184 66.704 142.104C66.704 145.688 64.976 148.504 61.52 150.552C58.064 152.557 53.2427 153.56 47.056 153.56C46.8853 154.797 46.8 155.864 46.8 156.76C46.8 158.765 47.3333 160.323 48.4 161.432C49.4667 162.499 50.9813 163.032 52.944 163.032C54.5227 163.032 56.1867 162.712 57.936 162.072C59.728 161.432 61.2853 160.579 62.608 159.512L64.72 162.008C62.672 163.715 60.3893 165.059 57.872 166.04C55.3973 166.979 52.9227 167.448 50.448 167.448ZM47.632 149.848C49.552 149.805 51.3653 149.421 53.072 148.696C54.7787 147.971 56.144 147.032 57.168 145.88C58.2347 144.685 58.768 143.405 58.768 142.04C58.768 140.973 58.4907 140.141 57.936 139.544C57.3813 138.947 56.5493 138.648 55.44 138.648C53.3067 138.648 51.6427 139.587 50.448 141.464C49.296 143.299 48.3573 146.093 47.632 149.848ZM109.282 139.8C108.343 139.8 107.298 140.44 106.146 141.72C105.037 142.957 103.991 144.664 103.01 146.84C102.071 148.973 101.41 151.299 101.026 153.816L98.978 167H89.89L91.234 158.936C92.0873 153.859 92.6847 150.189 93.026 147.928C93.3673 145.667 93.538 144.152 93.538 143.384C93.538 142.275 93.3033 141.4 92.834 140.76C92.3647 140.12 91.7033 139.8 90.85 139.8C89.826 139.8 88.7167 140.525 87.522 141.976C86.37 143.384 85.3033 145.219 84.322 147.48C83.3833 149.741 82.722 152.067 82.338 154.456L80.29 167H71.266L71.714 164.184C73.9327 150.744 75.042 143.683 75.042 143C75.042 141.123 74.1887 140.184 72.482 140.184C72.2687 140.184 71.8207 140.227 71.138 140.312L70.946 137.816C72.482 137.176 74.466 136.643 76.898 136.216C79.3727 135.789 81.5487 135.555 83.426 135.512L84.386 136.088L84.194 141.848C86.882 137.624 90.3167 135.512 94.498 135.512C96.802 135.512 98.658 136.088 100.066 137.24C101.474 138.392 102.306 139.971 102.562 141.976C105.293 137.667 108.749 135.512 112.93 135.512C115.49 135.512 117.474 136.216 118.882 137.624C120.333 138.989 121.058 140.909 121.058 143.384C121.058 144.152 120.845 145.88 120.418 148.568C120.034 151.213 119.778 152.92 119.65 153.688C118.925 158.04 118.562 160.515 118.562 161.112C118.562 162.136 119.031 162.648 119.97 162.648C120.695 162.648 121.677 162.307 122.914 161.624L123.746 163.928C122.893 164.781 121.549 165.571 119.714 166.296C117.879 167.021 116.237 167.384 114.786 167.384C113.037 167.384 111.693 166.957 110.754 166.104C109.858 165.208 109.41 163.8 109.41 161.88C109.41 160.643 109.858 157.507 110.754 152.472C110.882 151.661 111.117 150.168 111.458 147.992C111.799 145.773 111.97 144.323 111.97 143.64C111.97 142.403 111.735 141.464 111.266 140.824C110.797 140.141 110.135 139.8 109.282 139.8ZM135.274 167.384C133.354 167.384 131.988 166.915 131.178 165.976C130.367 165.037 129.962 163.651 129.962 161.816C129.962 160.579 130.495 156.76 131.562 150.36C132.287 145.923 132.65 143.448 132.65 142.936C132.65 141.101 131.796 140.184 130.09 140.184C129.876 140.184 129.428 140.227 128.746 140.312L128.554 137.816C130.09 137.176 132.074 136.643 134.506 136.216C136.98 135.789 139.156 135.555 141.034 135.512L142.762 136.408L141.93 141.784C139.967 153.901 138.986 160.344 138.986 161.112C138.986 162.136 139.476 162.648 140.458 162.648C141.183 162.648 142.164 162.307 143.402 161.624L144.234 163.928C143.38 164.781 142.036 165.571 140.202 166.296C138.367 167.021 136.724 167.384 135.274 167.384ZM138.922 131.16C137.684 131.16 136.682 130.84 135.914 130.2C135.146 129.56 134.762 128.643 134.762 127.448C134.762 125.869 135.231 124.611 136.17 123.672C137.151 122.691 138.452 122.2 140.074 122.2C141.354 122.2 142.356 122.541 143.082 123.224C143.85 123.864 144.234 124.76 144.234 125.912C144.234 127.491 143.743 128.771 142.762 129.752C141.823 130.691 140.543 131.16 138.922 131.16ZM174.756 167.384C172.836 167.384 171.471 166.915 170.66 165.976C169.85 165.037 169.444 163.672 169.444 161.88C169.444 160.685 169.871 157.485 170.724 152.28C171.535 147.672 171.94 144.792 171.94 143.64C171.94 142.403 171.706 141.464 171.236 140.824C170.767 140.141 170.106 139.8 169.252 139.8C168.228 139.8 167.119 140.525 165.924 141.976C164.772 143.384 163.706 145.219 162.724 147.48C161.786 149.741 161.124 152.067 160.74 154.456L158.692 167H149.668L150.82 159.832C152.57 149.037 153.444 143.405 153.444 142.936C153.444 141.101 152.591 140.184 150.884 140.184C150.671 140.184 150.223 140.227 149.54 140.312L149.348 137.816C150.884 137.176 152.868 136.643 155.3 136.216C157.775 135.789 159.951 135.555 161.828 135.512L162.852 136.088L162.596 141.912C165.242 137.645 168.676 135.512 172.9 135.512C175.46 135.512 177.444 136.216 178.852 137.624C180.303 138.989 181.028 140.909 181.028 143.384C181.028 144.195 180.58 147.373 179.684 152.92C178.916 157.784 178.532 160.493 178.532 161.048C178.532 162.115 179.002 162.648 179.94 162.648C180.666 162.648 181.647 162.307 182.884 161.624L183.716 163.928C182.863 164.781 181.519 165.571 179.684 166.296C177.85 167.021 176.207 167.384 174.756 167.384ZM196.583 181.016C189.329 181.016 185.703 178.797 185.703 174.36C185.703 172.781 186.193 171.48 187.175 170.456C188.199 169.475 189.479 168.984 191.015 168.984C191.911 168.984 192.7 169.197 193.383 169.624C194.108 170.093 194.641 170.776 194.983 171.672C194.556 171.928 194.193 172.333 193.895 172.888C193.639 173.443 193.511 174.019 193.511 174.616C193.511 175.555 193.852 176.259 194.535 176.728C195.26 177.24 196.263 177.496 197.543 177.496C200.401 177.496 202.535 176.344 203.943 174.04C205.393 171.779 206.332 168.664 206.759 164.696L206.823 163.928C204.775 166.445 202.129 167.704 198.887 167.704C197.052 167.704 195.367 167.256 193.831 166.36C192.295 165.464 191.057 164.099 190.119 162.264C189.18 160.387 188.711 158.104 188.711 155.416C188.711 149.315 190.225 144.472 193.255 140.888C196.327 137.304 200.615 135.512 206.119 135.512C208.124 135.512 210.343 135.939 212.775 136.792C214.183 135.981 215.975 135.576 218.151 135.576C218.663 135.576 219.345 135.619 220.199 135.704L215.655 163.864C214.716 169.709 212.668 174.019 209.511 176.792C206.353 179.608 202.044 181.016 196.583 181.016ZM201.767 163.8C203.345 163.8 204.732 162.605 205.927 160.216C207.121 157.784 208.081 154.456 208.807 150.232L210.663 139.224C209.639 138.84 208.615 138.648 207.591 138.648C205.841 138.648 204.22 139.288 202.727 140.568C201.276 141.805 200.103 143.683 199.207 146.2C198.353 148.675 197.927 151.725 197.927 155.352C197.927 158.339 198.268 160.493 198.951 161.816C199.676 163.139 200.615 163.8 201.767 163.8Z" fill="#333333"/>
<path d="M50.363 192.24C48.459 192.24 47.011 191.712 46.019 190.656C45.043 189.584 44.555 188.04 44.555 186.024C44.555 182.824 45.267 180.328 46.691 178.536C48.131 176.728 50.219 175.824 52.955 175.824C54.299 175.824 55.371 176.088 56.171 176.616C56.987 177.144 57.395 177.832 57.395 178.68C57.395 179.32 57.163 179.88 56.699 180.36C56.251 180.824 55.723 181.056 55.115 181.056C54.731 181.056 54.379 180.952 54.059 180.744C53.755 180.536 53.555 180.272 53.459 179.952C53.859 179.424 54.059 178.92 54.059 178.44C54.059 178.024 53.931 177.696 53.675 177.456C53.435 177.216 53.091 177.096 52.643 177.096C51.683 177.096 50.891 177.552 50.267 178.464C49.643 179.376 49.195 180.52 48.923 181.896C48.651 183.272 48.515 184.672 48.515 186.096C48.515 189.104 49.483 190.608 51.419 190.608C52.715 190.608 54.027 190.008 55.355 188.808L56.027 189.576C55.131 190.424 54.187 191.08 53.195 191.544C52.203 192.008 51.259 192.24 50.363 192.24ZM148.503 191.016C148.903 190.952 149.231 190.872 149.487 190.776C149.743 190.664 149.991 190.504 150.231 190.296L152.223 177.696C152.095 177.536 151.879 177.392 151.575 177.264C151.287 177.12 150.975 177.024 150.639 176.976L150.783 175.992H157.887L157.743 176.976C157.295 177.056 156.911 177.152 156.591 177.264C156.287 177.36 156.007 177.504 155.751 177.696L153.831 189.696C153.799 189.984 153.855 190.192 153.999 190.32C154.143 190.448 154.423 190.512 154.839 190.512H157.239C157.815 189.792 158.319 188.816 158.751 187.584C159.151 187.472 159.519 187.416 159.855 187.416C160.047 187.416 160.223 187.44 160.383 187.488L159.423 192H148.383L148.503 191.016Z" fill="#E2B358"/>
<path d="M61.8228 192.18C60.2988 192.18 59.1648 191.778 58.4208 190.974C57.6888 190.158 57.3228 188.988 57.3228 187.464C57.3228 185.952 57.5688 184.62 58.0608 183.468C58.5648 182.316 59.2968 181.416 60.2568 180.768C61.2168 180.12 62.3628 179.796 63.6948 179.796C65.2188 179.796 66.3468 180.204 67.0788 181.02C67.8228 181.824 68.1948 182.988 68.1948 184.512C68.1948 186.024 67.9428 187.356 67.4388 188.508C66.9468 189.66 66.2208 190.56 65.2608 191.208C64.3008 191.856 63.1548 192.18 61.8228 192.18ZM62.0028 191.1C62.7228 191.1 63.3348 190.71 63.8388 189.93C64.3548 189.138 64.7388 188.19 64.9908 187.086C65.2548 185.982 65.3868 184.98 65.3868 184.08C65.3868 182.964 65.2368 182.148 64.9368 181.632C64.6368 181.104 64.1628 180.84 63.5148 180.84C62.7948 180.84 62.1768 181.236 61.6608 182.028C61.1568 182.808 60.7728 183.75 60.5088 184.854C60.2568 185.946 60.1308 186.948 60.1308 187.86C60.1308 188.976 60.2808 189.798 60.5808 190.326C60.8808 190.842 61.3548 191.1 62.0028 191.1ZM68.3291 191.262C68.6171 191.214 68.8511 191.154 69.0311 191.082C69.2231 190.998 69.4211 190.878 69.6251 190.722L71.1191 181.272C71.0231 181.152 70.8611 181.044 70.6331 180.948C70.4171 180.84 70.1831 180.768 69.9311 180.732L70.0391 179.994H75.1151C77.8751 179.994 79.2551 180.882 79.2551 182.658C79.2551 183.546 78.9551 184.284 78.3551 184.872C77.7671 185.46 76.9751 185.892 75.9791 186.168C76.5191 186.42 76.8731 186.852 77.0411 187.464L77.9411 190.524C78.0011 190.74 78.1271 190.902 78.3191 191.01C78.5111 191.106 78.7871 191.19 79.1471 191.262L79.0571 192H76.7891C76.3811 192 76.0331 191.898 75.7451 191.694C75.4691 191.49 75.2891 191.196 75.2051 190.812L74.2691 187.284C74.1371 186.804 73.7411 186.564 73.0811 186.564H72.9371L72.2711 190.722C72.4871 190.95 72.8891 191.13 73.4771 191.262L73.3871 192H68.2391L68.3291 191.262ZM73.2791 185.466C74.0471 185.466 74.6771 185.328 75.1691 185.052C75.6731 184.776 76.0331 184.434 76.2491 184.026C76.4771 183.606 76.5911 183.174 76.5911 182.73C76.5911 182.214 76.4531 181.812 76.1771 181.524C75.9131 181.236 75.4571 181.092 74.8091 181.092C74.5091 181.092 74.2871 181.11 74.1431 181.146C74.0111 181.182 73.9091 181.248 73.8371 181.344C73.7771 181.44 73.7291 181.596 73.6931 181.812L73.0991 185.466H73.2791ZM79.6846 191.262C79.9726 191.214 80.2066 191.154 80.3866 191.082C80.5786 190.998 80.7766 190.878 80.9806 190.722L82.4746 181.272C82.3786 181.152 82.2166 181.044 81.9886 180.948C81.7726 180.84 81.5386 180.768 81.2866 180.732L81.3946 179.994H86.5606C89.3686 179.994 90.7726 180.936 90.7726 182.82C90.7726 183.792 90.4726 184.59 89.8726 185.214C89.2726 185.838 88.4926 186.294 87.5326 186.582C86.5846 186.87 85.5646 187.014 84.4726 187.014H84.2026L83.6266 190.722C83.7346 190.83 83.9146 190.926 84.1666 191.01C84.4306 191.082 84.7726 191.166 85.1926 191.262L85.1026 192H79.5946L79.6846 191.262ZM84.7426 185.826C85.5226 185.826 86.1646 185.676 86.6686 185.376C87.1726 185.076 87.5386 184.704 87.7666 184.26C87.9946 183.804 88.1086 183.342 88.1086 182.874C88.1086 182.322 87.9466 181.884 87.6226 181.56C87.3106 181.236 86.8186 181.074 86.1466 181.074C85.7146 181.074 85.4326 181.122 85.3006 181.218C85.1686 181.314 85.0786 181.518 85.0306 181.83L84.4006 185.826H84.7426ZM95.3794 192.18C93.8554 192.18 92.7214 191.778 91.9774 190.974C91.2454 190.158 90.8794 188.988 90.8794 187.464C90.8794 185.952 91.1254 184.62 91.6174 183.468C92.1214 182.316 92.8534 181.416 93.8134 180.768C94.7734 180.12 95.9194 179.796 97.2514 179.796C98.7754 179.796 99.9034 180.204 100.635 181.02C101.379 181.824 101.751 182.988 101.751 184.512C101.751 186.024 101.499 187.356 100.995 188.508C100.503 189.66 99.7774 190.56 98.8174 191.208C97.8574 191.856 96.7114 192.18 95.3794 192.18ZM95.5594 191.1C96.2794 191.1 96.8914 190.71 97.3954 189.93C97.9114 189.138 98.2954 188.19 98.5474 187.086C98.8114 185.982 98.9434 184.98 98.9434 184.08C98.9434 182.964 98.7934 182.148 98.4934 181.632C98.1934 181.104 97.7194 180.84 97.0714 180.84C96.3514 180.84 95.7334 181.236 95.2174 182.028C94.7134 182.808 94.3294 183.75 94.0654 184.854C93.8134 185.946 93.6874 186.948 93.6874 187.86C93.6874 188.976 93.8374 189.798 94.1374 190.326C94.4374 190.842 94.9114 191.1 95.5594 191.1ZM101.886 191.262C102.174 191.214 102.408 191.154 102.588 191.082C102.78 190.998 102.978 190.878 103.182 190.722L104.676 181.272C104.58 181.152 104.418 181.044 104.19 180.948C103.974 180.84 103.74 180.768 103.488 180.732L103.596 179.994H108.672C111.432 179.994 112.812 180.882 112.812 182.658C112.812 183.546 112.512 184.284 111.912 184.872C111.324 185.46 110.532 185.892 109.536 186.168C110.076 186.42 110.43 186.852 110.598 187.464L111.498 190.524C111.558 190.74 111.684 190.902 111.876 191.01C112.068 191.106 112.344 191.19 112.704 191.262L112.614 192H110.346C109.938 192 109.59 191.898 109.302 191.694C109.026 191.49 108.846 191.196 108.762 190.812L107.826 187.284C107.694 186.804 107.298 186.564 106.638 186.564H106.494L105.828 190.722C106.044 190.95 106.446 191.13 107.034 191.262L106.944 192H101.796L101.886 191.262ZM106.836 185.466C107.604 185.466 108.234 185.328 108.726 185.052C109.23 184.776 109.59 184.434 109.806 184.026C110.034 183.606 110.148 183.174 110.148 182.73C110.148 182.214 110.01 181.812 109.734 181.524C109.47 181.236 109.014 181.092 108.366 181.092C108.066 181.092 107.844 181.11 107.7 181.146C107.568 181.182 107.466 181.248 107.394 181.344C107.334 181.44 107.286 181.596 107.25 181.812L106.656 185.466H106.836ZM112.341 191.28C113.013 191.232 113.427 191.052 113.583 190.74L119.091 179.994H120.963L123.123 190.56C123.171 190.752 123.273 190.908 123.429 191.028C123.597 191.136 123.825 191.22 124.113 191.28L124.041 192H119.073L119.181 191.28C119.769 191.196 120.165 191.046 120.369 190.83L119.937 188.256H116.229L114.969 190.74C115.269 191.016 115.749 191.196 116.409 191.28L116.319 192H112.251L112.341 191.28ZM119.739 187.122L119.019 182.802L116.805 187.122H119.739ZM124.424 191.262C125.216 191.142 125.768 190.962 126.08 190.722L127.61 181.11C127.094 181.134 126.698 181.158 126.422 181.182L125.954 181.218C125.726 181.47 125.516 181.794 125.324 182.19C125.132 182.574 125 182.946 124.928 183.306C124.712 183.342 124.496 183.36 124.28 183.36C124.076 183.36 123.878 183.342 123.686 183.306L124.226 179.922C125.078 179.97 126.704 179.994 129.104 179.994C129.968 179.994 130.862 179.988 131.786 179.976C132.722 179.952 133.46 179.934 134 179.922L133.46 183.306C133.268 183.342 133.07 183.36 132.866 183.36C132.65 183.36 132.434 183.342 132.218 183.306C132.218 182.382 132.116 181.692 131.912 181.236C131.288 181.152 130.736 181.104 130.256 181.092L128.726 190.722C128.834 190.83 129.014 190.926 129.266 191.01C129.53 191.082 129.872 191.166 130.292 191.262L130.202 192H124.334L124.424 191.262ZM132.999 191.262C133.287 191.214 133.521 191.154 133.701 191.082C133.893 190.998 134.091 190.878 134.295 190.722L135.789 181.272C135.693 181.152 135.531 181.044 135.303 180.948C135.087 180.84 134.853 180.768 134.601 180.732L134.709 179.994H143.529L143.133 182.946C142.845 183.03 142.569 183.072 142.305 183.072C142.173 183.072 142.041 183.054 141.909 183.018C141.885 182.202 141.753 181.56 141.513 181.092H138.471L137.787 185.304L139.425 185.232C139.641 185.22 139.857 185.106 140.073 184.89C140.289 184.662 140.469 184.374 140.613 184.026H141.369L140.775 187.752H140.019C139.935 187.272 139.827 186.936 139.695 186.744C139.575 186.54 139.413 186.432 139.209 186.42L137.625 186.348L136.905 190.884H140.271C140.703 190.344 141.081 189.612 141.405 188.688C141.705 188.604 141.981 188.562 142.233 188.562C142.377 188.562 142.509 188.58 142.629 188.616L141.909 192H132.909L132.999 191.262ZM159.978 191.28C160.65 191.232 161.064 191.052 161.22 190.74L166.728 179.994H168.6L170.76 190.56C170.808 190.752 170.91 190.908 171.066 191.028C171.234 191.136 171.462 191.22 171.75 191.28L171.678 192H166.71L166.818 191.28C167.406 191.196 167.802 191.046 168.006 190.83L167.574 188.256H163.866L162.606 190.74C162.906 191.016 163.386 191.196 164.046 191.28L163.956 192H159.888L159.978 191.28ZM167.376 187.122L166.656 182.802L164.442 187.122H167.376ZM175.689 192.108C174.921 192.108 174.333 192.072 173.925 192L172.557 181.272C172.341 181.008 172.011 180.828 171.567 180.732L171.675 179.994H176.589L176.481 180.714C176.181 180.75 175.935 180.798 175.743 180.858C175.563 180.918 175.413 181.002 175.293 181.11L176.175 188.67L179.937 180.318C180.405 180.162 180.963 180.084 181.611 180.084L182.691 188.67L186.075 181.272C185.643 180.96 185.163 180.774 184.635 180.714L184.725 179.994H188.613L188.523 180.732C188.259 180.756 188.037 180.81 187.857 180.894C187.677 180.978 187.539 181.116 187.443 181.308L182.241 192.09C181.461 192.09 180.873 192.06 180.477 192L179.397 184.26L175.689 192.108Z" fill="#333333"/>
</svg>
