<svg width="447" height="162" viewBox="0 0 447 162" fill="none" xmlns="http://www.w3.org/2000/svg">
<rect x="2" y="2" width="443" height="158" stroke="#E2B358" stroke-width="3"/>
<path d="M55.234 102.067L39.652 74.68H39.864L38.168 72.152L20.784 102.067H14L16.65 113.653H57.99L58.308 112.073L61.17 102.067H55.234ZM38.062 75.944L53.114 102.067H22.798L38.062 75.944ZM55.658 109.44H19.512L18.558 105.227H56.612L55.658 109.44Z" fill="black" stroke="#E2B358"/>
<path d="M159.326 102.067L142.154 72.5733L140.564 74.68H140.776L140.988 74.996V74.68H140.458L124.77 102.067H117.986L121.166 113.653H162.506L162.824 112.073L165.156 102.067H159.326ZM142.154 75.944L157.312 102.067H126.996L142.154 75.944ZM159.75 109.44H123.604L122.65 105.227H160.704L159.75 109.44Z" fill="black" stroke="#E2B358"/>
<path d="M140.988 69.4133H102.298H78.448H39.758L71.028 92.1653L59.05 128.821L90.426 106.28L121.696 128.927L109.718 92.1653L140.988 69.4133ZM110.354 113.443L90.426 99.012L70.392 113.443L78.024 90.164L57.99 75.7333H82.794H98.058H122.756L102.722 90.164L110.354 113.443Z" fill="black" stroke="#E2B358"/>
<path d="M90.426 65.516C98.8 65.516 105.69 58.7747 105.69 50.348C105.69 42.0267 98.906 35.18 90.426 35.18C81.946 35.18 75.162 42.0267 75.162 50.348C75.162 58.7747 81.946 65.516 90.426 65.516ZM90.426 41.0787C95.62 41.0787 99.754 45.292 99.754 50.348C99.754 55.5093 95.514 59.6173 90.426 59.6173C85.232 59.6173 81.098 55.404 81.098 50.348C80.992 45.292 85.232 41.0787 90.426 41.0787Z" fill="black" stroke="#E2B358"/>
<path d="M182.792 69.336C181 69.336 179.24 69.128 177.512 68.712C175.816 68.296 174.28 67.688 172.904 66.888L175.304 58.392L178.808 59.016C178.584 60.872 178.472 62.168 178.472 62.904C178.472 63.672 178.52 64.392 178.616 65.064C179.864 66.088 181.24 66.6 182.744 66.6C184.184 66.6 185.368 66.12 186.296 65.16C187.256 64.2 187.736 62.904 187.736 61.272C187.736 59.928 187.32 58.808 186.488 57.912C185.688 56.984 184.312 56.008 182.36 54.984C180.216 53.896 178.6 52.728 177.512 51.48C176.456 50.232 175.928 48.744 175.928 47.016C175.928 45 176.472 43.208 177.56 41.64C178.68 40.04 180.184 38.808 182.072 37.944C183.96 37.048 186.024 36.6 188.264 36.6C189.928 36.6 191.448 36.856 192.824 37.368C194.2 37.88 195.272 38.568 196.04 39.432C196.808 40.296 197.192 41.256 197.192 42.312C197.192 43.496 196.84 44.472 196.136 45.24C195.432 46.008 194.552 46.392 193.496 46.392C192.28 46.392 191.128 45.912 190.04 44.952C190.584 44.44 191 43.912 191.288 43.368C191.608 42.792 191.768 42.248 191.768 41.736C191.768 40.936 191.416 40.312 190.712 39.864C190.04 39.416 189.112 39.192 187.928 39.192C186.424 39.192 185.192 39.624 184.232 40.488C183.272 41.32 182.792 42.44 182.792 43.848C182.792 45 183.176 45.976 183.944 46.776C184.744 47.544 186.2 48.472 188.312 49.56C190.584 50.744 192.264 52.024 193.352 53.4C194.44 54.776 194.984 56.424 194.984 58.344C194.984 60.552 194.456 62.488 193.4 64.152C192.376 65.816 190.936 67.096 189.08 67.992C187.224 68.888 185.128 69.336 182.792 69.336ZM186.392 124.48C182.584 124.48 179.688 123.424 177.704 121.312C175.752 119.168 174.776 116.08 174.776 112.048C174.776 105.648 176.2 100.656 179.048 97.072C181.928 93.456 186.104 91.648 191.576 91.648C194.264 91.648 196.408 92.176 198.008 93.232C199.64 94.288 200.456 95.664 200.456 97.36C200.456 98.64 199.992 99.76 199.064 100.72C198.168 101.648 197.112 102.112 195.896 102.112C195.128 102.112 194.424 101.904 193.784 101.488C193.176 101.072 192.776 100.544 192.584 99.904C193.384 98.848 193.784 97.84 193.784 96.88C193.784 96.048 193.528 95.392 193.016 94.912C192.536 94.432 191.848 94.192 190.952 94.192C189.032 94.192 187.448 95.104 186.2 96.928C184.952 98.752 184.056 101.04 183.512 103.792C182.968 106.544 182.696 109.344 182.696 112.192C182.696 118.208 184.632 121.216 188.504 121.216C191.096 121.216 193.72 120.016 196.376 117.616L197.72 119.152C195.928 120.848 194.04 122.16 192.056 123.088C190.072 124.016 188.184 124.48 186.392 124.48ZM349.941 122.032C350.741 121.904 351.397 121.744 351.909 121.552C352.421 121.328 352.917 121.008 353.397 120.592L357.381 95.392C357.125 95.072 356.693 94.784 356.085 94.528C355.509 94.24 354.885 94.048 354.213 93.952L354.501 91.984H368.709L368.421 93.952C367.525 94.112 366.757 94.304 366.117 94.528C365.509 94.72 364.949 95.008 364.437 95.392L360.597 119.392C360.533 119.968 360.645 120.384 360.933 120.64C361.221 120.896 361.781 121.024 362.613 121.024H367.413C368.565 119.584 369.573 117.632 370.437 115.168C371.237 114.944 371.973 114.832 372.645 114.832C373.029 114.832 373.381 114.88 373.701 114.976L371.781 124H349.701L349.941 122.032Z" fill="#E2B358"/>
<path d="M203.371 69.396C202.339 69.396 201.391 69.144 200.527 68.64C199.663 68.136 198.967 67.392 198.439 66.408C197.911 65.4 197.647 64.176 197.647 62.736C197.647 60.456 198.031 58.452 198.799 56.724C199.567 54.996 200.683 53.664 202.147 52.728C203.611 51.768 205.375 51.288 207.439 51.288C208.567 51.288 209.815 51.528 211.183 52.008C211.975 51.552 212.983 51.324 214.207 51.324C214.495 51.324 214.879 51.348 215.359 51.396L215.215 52.368C214.831 54.576 214.387 57.276 213.883 60.468C213.379 63.66 213.127 65.436 213.127 65.796C213.127 66.276 213.379 66.516 213.883 66.516C214.123 66.516 214.399 66.468 214.711 66.372C215.023 66.276 215.311 66.144 215.575 65.976L216.043 67.344C215.251 67.848 214.435 68.292 213.595 68.676C212.779 69.036 211.891 69.216 210.931 69.216C209.995 69.216 209.275 69.012 208.771 68.604C208.291 68.172 208.051 67.632 208.051 66.984C206.923 68.592 205.363 69.396 203.371 69.396ZM204.991 67.2C206.719 67.2 208.003 64.812 208.843 60.036L209.995 53.376C209.419 53.16 208.843 53.052 208.267 53.052C207.235 53.052 206.311 53.424 205.495 54.168C204.679 54.888 204.031 55.992 203.551 57.48C203.071 58.944 202.831 60.732 202.831 62.844C202.831 64.26 203.023 65.34 203.407 66.084C203.815 66.828 204.343 67.2 204.991 67.2ZM222.288 69.144C221.04 69.144 220.092 68.856 219.444 68.28C218.82 67.704 218.508 66.888 218.508 65.832C218.508 65.328 218.976 62.136 219.912 56.256L220.272 54.132H217.716L217.968 52.548C219.192 52.116 220.332 51.504 221.388 50.712C222.468 49.92 223.356 49.008 224.052 47.976H226.392L225.816 51.792H230.424L230.028 54.132H225.384L225.06 56.076C224.916 57.012 224.652 58.704 224.268 61.152C223.884 63.576 223.692 64.932 223.692 65.22C223.692 66.06 224.136 66.48 225.024 66.48C225.408 66.48 225.9 66.348 226.5 66.084C227.124 65.82 227.676 65.532 228.156 65.22L229.02 66.408C228.228 67.152 227.196 67.8 225.924 68.352C224.652 68.88 223.44 69.144 222.288 69.144ZM237.867 69.252C235.443 69.252 233.583 68.652 232.287 67.452C231.015 66.252 230.379 64.464 230.379 62.088C230.379 60 230.775 58.14 231.567 56.508C232.359 54.876 233.511 53.604 235.023 52.692C236.559 51.756 238.395 51.288 240.531 51.288C242.955 51.288 244.803 51.9 246.075 53.124C247.371 54.348 248.019 56.136 248.019 58.488C248.019 60.6 247.623 62.472 246.831 64.104C246.063 65.712 244.911 66.972 243.375 67.884C241.863 68.796 240.027 69.252 237.867 69.252ZM238.155 67.236C239.763 67.236 240.939 66.204 241.683 64.14C242.451 62.052 242.835 59.712 242.835 57.12C242.835 55.8 242.619 54.84 242.187 54.24C241.779 53.616 241.131 53.304 240.243 53.304C239.163 53.304 238.263 53.832 237.543 54.888C236.847 55.92 236.343 57.216 236.031 58.776C235.719 60.312 235.563 61.884 235.563 63.492C235.563 64.788 235.767 65.736 236.175 66.336C236.607 66.936 237.267 67.236 238.155 67.236ZM264.496 69.216C263.416 69.216 262.648 68.952 262.192 68.424C261.736 67.896 261.508 67.128 261.508 66.12C261.508 65.448 261.748 63.648 262.228 60.72C262.684 58.128 262.912 56.508 262.912 55.86C262.912 55.164 262.78 54.636 262.516 54.276C262.252 53.892 261.88 53.7 261.4 53.7C260.824 53.7 260.2 54.108 259.528 54.924C258.88 55.716 258.28 56.748 257.728 58.02C257.2 59.292 256.828 60.6 256.612 61.944L255.46 69H250.384L251.032 64.968C252.016 58.896 252.508 55.728 252.508 55.464C252.508 54.432 252.028 53.916 251.068 53.916C250.948 53.916 250.696 53.94 250.312 53.988L250.204 52.584C251.068 52.224 252.184 51.924 253.552 51.684C254.944 51.444 256.168 51.312 257.224 51.288L257.8 51.612L257.656 54.888C259.144 52.488 261.076 51.288 263.452 51.288C264.892 51.288 266.008 51.684 266.8 52.476C267.616 53.244 268.024 54.324 268.024 55.716C268.024 56.172 267.772 57.96 267.268 61.08C266.836 63.816 266.62 65.34 266.62 65.652C266.62 66.252 266.884 66.552 267.412 66.552C267.82 66.552 268.372 66.36 269.068 65.976L269.536 67.272C269.056 67.752 268.3 68.196 267.268 68.604C266.236 69.012 265.312 69.216 264.496 69.216ZM207.656 124.252C205.232 124.252 203.372 123.652 202.076 122.452C200.804 121.252 200.168 119.464 200.168 117.088C200.168 115 200.564 113.14 201.356 111.508C202.148 109.876 203.3 108.604 204.812 107.692C206.348 106.756 208.184 106.288 210.32 106.288C212.744 106.288 214.592 106.9 215.864 108.124C217.16 109.348 217.808 111.136 217.808 113.488C217.808 115.6 217.412 117.472 216.62 119.104C215.852 120.712 214.7 121.972 213.164 122.884C211.652 123.796 209.816 124.252 207.656 124.252ZM207.944 122.236C209.552 122.236 210.728 121.204 211.472 119.14C212.24 117.052 212.624 114.712 212.624 112.12C212.624 110.8 212.408 109.84 211.976 109.24C211.568 108.616 210.92 108.304 210.032 108.304C208.952 108.304 208.052 108.832 207.332 109.888C206.636 110.92 206.132 112.216 205.82 113.776C205.508 115.312 205.352 116.884 205.352 118.492C205.352 119.788 205.556 120.736 205.964 121.336C206.396 121.936 207.056 122.236 207.944 122.236ZM220.929 119.392C221.025 118.744 221.277 117.172 221.685 114.676C222.093 112.156 222.297 110.692 222.297 110.284C222.297 109.828 222.165 109.492 221.901 109.276C221.661 109.036 221.313 108.916 220.857 108.916C220.737 108.916 220.485 108.94 220.101 108.988L219.993 107.584C222.057 106.72 224.397 106.288 227.013 106.288L228.021 106.864L227.301 111.328C228.021 109.84 228.873 108.652 229.857 107.764C230.841 106.852 231.969 106.396 233.241 106.396C234.129 106.396 234.837 106.624 235.365 107.08C235.893 107.536 236.157 108.184 236.157 109.024C236.157 109.984 235.869 110.788 235.293 111.436C234.741 112.084 234.141 112.408 233.493 112.408C233.133 112.408 232.773 112.324 232.413 112.156C232.077 111.964 231.813 111.748 231.621 111.508C231.717 111.412 231.801 111.268 231.873 111.076C231.945 110.884 231.981 110.704 231.981 110.536C231.981 110.248 231.897 110.02 231.729 109.852C231.561 109.66 231.321 109.564 231.009 109.564C230.505 109.564 229.917 109.972 229.245 110.788C228.573 111.604 227.961 112.624 227.409 113.848C226.857 115.048 226.497 116.2 226.329 117.304L225.249 124H220.173L220.929 119.392ZM238.827 131.776C236.811 131.776 235.803 130.84 235.803 128.968C235.803 128.44 236.019 126.772 236.451 123.964C236.907 121.156 237.207 119.32 237.351 118.456C238.167 113.608 238.575 110.932 238.575 110.428C238.575 109.42 238.095 108.916 237.135 108.916C237.015 108.916 236.763 108.94 236.379 108.988L236.271 107.584C237.135 107.224 238.251 106.924 239.619 106.684C241.011 106.444 242.235 106.312 243.291 106.288L243.867 106.612L243.759 108.988C245.103 107.188 246.939 106.288 249.267 106.288C251.043 106.288 252.399 106.84 253.335 107.944C254.295 109.048 254.775 110.656 254.775 112.768C254.775 115.144 254.391 117.196 253.623 118.924C252.855 120.652 251.739 121.972 250.275 122.884C248.835 123.796 247.119 124.252 245.127 124.252C244.383 124.252 243.747 124.18 243.219 124.036C242.691 123.892 242.175 123.676 241.671 123.388C241.551 124.18 241.395 125.152 241.203 126.304C241.035 127.48 240.951 128.164 240.951 128.356C240.951 128.596 241.023 128.776 241.167 128.896C241.311 129.04 241.503 129.112 241.743 129.112C242.151 129.112 242.703 128.92 243.399 128.536L243.867 129.832C243.387 130.312 242.631 130.756 241.599 131.164C240.567 131.572 239.643 131.776 238.827 131.776ZM244.191 122.344C246.039 122.344 247.395 121.372 248.259 119.428C249.123 117.484 249.555 115.144 249.555 112.408C249.555 109.768 248.811 108.448 247.323 108.448C246.339 108.448 245.475 108.904 244.731 109.816C243.987 110.728 243.471 112.048 243.183 113.776L241.923 121.624C242.163 121.816 242.487 121.984 242.895 122.128C243.303 122.272 243.735 122.344 244.191 122.344ZM264.538 124.252C262.114 124.252 260.254 123.652 258.958 122.452C257.686 121.252 257.05 119.464 257.05 117.088C257.05 115 257.446 113.14 258.238 111.508C259.03 109.876 260.182 108.604 261.694 107.692C263.23 106.756 265.066 106.288 267.202 106.288C269.626 106.288 271.474 106.9 272.746 108.124C274.042 109.348 274.69 111.136 274.69 113.488C274.69 115.6 274.294 117.472 273.502 119.104C272.734 120.712 271.582 121.972 270.046 122.884C268.534 123.796 266.698 124.252 264.538 124.252ZM264.826 122.236C266.434 122.236 267.61 121.204 268.354 119.14C269.122 117.052 269.506 114.712 269.506 112.12C269.506 110.8 269.29 109.84 268.858 109.24C268.45 108.616 267.802 108.304 266.914 108.304C265.834 108.304 264.934 108.832 264.214 109.888C263.518 110.92 263.014 112.216 262.702 113.776C262.39 115.312 262.234 116.884 262.234 118.492C262.234 119.788 262.438 120.736 262.846 121.336C263.278 121.936 263.938 122.236 264.826 122.236ZM277.812 119.392C277.908 118.744 278.16 117.172 278.568 114.676C278.976 112.156 279.18 110.692 279.18 110.284C279.18 109.828 279.048 109.492 278.784 109.276C278.544 109.036 278.196 108.916 277.74 108.916C277.62 108.916 277.368 108.94 276.984 108.988L276.876 107.584C278.94 106.72 281.28 106.288 283.896 106.288L284.904 106.864L284.184 111.328C284.904 109.84 285.756 108.652 286.74 107.764C287.724 106.852 288.852 106.396 290.124 106.396C291.012 106.396 291.72 106.624 292.248 107.08C292.776 107.536 293.04 108.184 293.04 109.024C293.04 109.984 292.752 110.788 292.176 111.436C291.624 112.084 291.024 112.408 290.376 112.408C290.016 112.408 289.656 112.324 289.296 112.156C288.96 111.964 288.696 111.748 288.504 111.508C288.6 111.412 288.684 111.268 288.756 111.076C288.828 110.884 288.864 110.704 288.864 110.536C288.864 110.248 288.78 110.02 288.612 109.852C288.444 109.66 288.204 109.564 287.892 109.564C287.388 109.564 286.8 109.972 286.128 110.788C285.456 111.604 284.844 112.624 284.292 113.848C283.74 115.048 283.38 116.2 283.212 117.304L282.132 124H277.056L277.812 119.392ZM298.598 124.396C297.566 124.396 296.618 124.144 295.754 123.64C294.89 123.136 294.194 122.392 293.666 121.408C293.138 120.4 292.874 119.176 292.874 117.736C292.874 115.456 293.258 113.452 294.026 111.724C294.794 109.996 295.91 108.664 297.374 107.728C298.838 106.768 300.602 106.288 302.666 106.288C303.794 106.288 305.042 106.528 306.41 107.008C307.202 106.552 308.21 106.324 309.434 106.324C309.722 106.324 310.106 106.348 310.586 106.396L310.442 107.368C310.058 109.576 309.614 112.276 309.11 115.468C308.606 118.66 308.354 120.436 308.354 120.796C308.354 121.276 308.606 121.516 309.11 121.516C309.35 121.516 309.626 121.468 309.938 121.372C310.25 121.276 310.538 121.144 310.802 120.976L311.27 122.344C310.478 122.848 309.662 123.292 308.822 123.676C308.006 124.036 307.118 124.216 306.158 124.216C305.222 124.216 304.502 124.012 303.998 123.604C303.518 123.172 303.278 122.632 303.278 121.984C302.15 123.592 300.59 124.396 298.598 124.396ZM300.218 122.2C301.946 122.2 303.23 119.812 304.07 115.036L305.222 108.376C304.646 108.16 304.07 108.052 303.494 108.052C302.462 108.052 301.538 108.424 300.722 109.168C299.906 109.888 299.258 110.992 298.778 112.48C298.298 113.944 298.058 115.732 298.058 117.844C298.058 119.26 298.25 120.34 298.634 121.084C299.042 121.828 299.57 122.2 300.218 122.2ZM317.514 124.144C316.266 124.144 315.318 123.856 314.67 123.28C314.046 122.704 313.734 121.888 313.734 120.832C313.734 120.328 314.202 117.136 315.138 111.256L315.498 109.132H312.942L313.194 107.548C314.418 107.116 315.558 106.504 316.614 105.712C317.694 104.92 318.582 104.008 319.278 102.976H321.618L321.042 106.792H325.65L325.254 109.132H320.61L320.286 111.076C320.142 112.012 319.878 113.704 319.494 116.152C319.11 118.576 318.918 119.932 318.918 120.22C318.918 121.06 319.362 121.48 320.25 121.48C320.634 121.48 321.126 121.348 321.726 121.084C322.35 120.82 322.902 120.532 323.382 120.22L324.246 121.408C323.454 122.152 322.422 122.8 321.15 123.352C319.878 123.88 318.666 124.144 317.514 124.144ZM332.625 124.252C330.465 124.252 328.749 123.628 327.477 122.38C326.205 121.108 325.569 119.392 325.569 117.232C325.569 115.12 325.989 113.236 326.829 111.58C327.669 109.924 328.857 108.628 330.393 107.692C331.953 106.756 333.753 106.288 335.793 106.288C337.761 106.288 339.249 106.636 340.257 107.332C341.265 108.028 341.769 108.916 341.769 109.996C341.769 112.012 340.797 113.596 338.853 114.748C336.909 115.876 334.197 116.44 330.717 116.44C330.621 117.136 330.573 117.736 330.573 118.24C330.573 119.368 330.873 120.244 331.473 120.868C332.073 121.468 332.925 121.768 334.029 121.768C334.917 121.768 335.853 121.588 336.837 121.228C337.845 120.868 338.721 120.388 339.465 119.788L340.653 121.192C339.501 122.152 338.217 122.908 336.801 123.46C335.409 123.988 334.017 124.252 332.625 124.252ZM331.041 114.352C332.121 114.328 333.141 114.112 334.101 113.704C335.061 113.296 335.829 112.768 336.405 112.12C337.005 111.448 337.305 110.728 337.305 109.96C337.305 109.36 337.149 108.892 336.837 108.556C336.525 108.22 336.057 108.052 335.433 108.052C334.233 108.052 333.297 108.58 332.625 109.636C331.977 110.668 331.449 112.24 331.041 114.352ZM381.531 124.396C380.499 124.396 379.551 124.144 378.687 123.64C377.823 123.136 377.127 122.392 376.599 121.408C376.071 120.4 375.807 119.176 375.807 117.736C375.807 115.456 376.191 113.452 376.959 111.724C377.727 109.996 378.843 108.664 380.307 107.728C381.771 106.768 383.535 106.288 385.599 106.288C386.727 106.288 387.975 106.528 389.343 107.008C390.135 106.552 391.143 106.324 392.367 106.324C392.655 106.324 393.039 106.348 393.519 106.396L393.375 107.368C392.991 109.576 392.547 112.276 392.043 115.468C391.539 118.66 391.287 120.436 391.287 120.796C391.287 121.276 391.539 121.516 392.043 121.516C392.283 121.516 392.559 121.468 392.871 121.372C393.183 121.276 393.471 121.144 393.735 120.976L394.203 122.344C393.411 122.848 392.595 123.292 391.755 123.676C390.939 124.036 390.051 124.216 389.091 124.216C388.155 124.216 387.435 124.012 386.931 123.604C386.451 123.172 386.211 122.632 386.211 121.984C385.083 123.592 383.523 124.396 381.531 124.396ZM383.151 122.2C384.879 122.2 386.163 119.812 387.003 115.036L388.155 108.376C387.579 108.16 387.003 108.052 386.427 108.052C385.395 108.052 384.471 108.424 383.655 109.168C382.839 109.888 382.191 110.992 381.711 112.48C381.231 113.944 380.991 115.732 380.991 117.844C380.991 119.26 381.183 120.34 381.567 121.084C381.975 121.828 382.503 122.2 383.151 122.2ZM397.392 110.824C397.2 109.336 396.408 108.604 395.016 108.628L394.8 107.476C395.328 107.14 396.06 106.876 396.996 106.684C397.932 106.492 398.928 106.396 399.984 106.396C400.584 106.396 401.028 106.408 401.316 106.432L403.044 119.464C404.364 117.304 405.312 115.648 405.888 114.496C406.488 113.344 406.884 112.348 407.076 111.508C407.268 110.668 407.364 109.636 407.364 108.412V106.828C408.372 106.66 409.68 106.576 411.288 106.576L413.052 119.68C414.9 116.8 416.184 114.604 416.904 113.092C417.648 111.556 418.02 110.392 418.02 109.6C418.02 108.76 417.468 108.316 416.364 108.268L416.22 106.936C417.492 106.552 418.848 106.36 420.288 106.36C420.936 106.36 421.416 106.384 421.728 106.432L422.34 107.368C422.34 107.896 422.004 108.904 421.332 110.392C420.684 111.88 419.928 113.272 419.064 114.568L412.548 124.252C411.06 124.252 409.932 124.168 409.164 124L408.048 115.612L402.54 124.252C402.324 124.276 401.988 124.288 401.532 124.288C400.572 124.288 399.78 124.192 399.156 124L397.392 110.824Z" fill="black"/>
<path d="M177.512 68.712L177.393 69.1976L177.395 69.1981L177.512 68.712ZM172.904 66.888L172.423 66.7521L172.317 67.1253L172.653 67.3203L172.904 66.888ZM175.304 58.392L175.392 57.8997L174.946 57.8204L174.823 58.2561L175.304 58.392ZM178.808 59.016L179.304 59.0759L179.361 58.6066L178.896 58.5237L178.808 59.016ZM178.616 65.064L178.121 65.1347L178.149 65.3272L178.299 65.4505L178.616 65.064ZM186.296 65.16L185.942 64.8064L185.937 64.8125L186.296 65.16ZM186.488 57.912L186.109 58.2385L186.115 58.2455L186.122 58.2522L186.488 57.912ZM182.36 54.984L182.592 54.5412L182.586 54.5381L182.36 54.984ZM177.512 51.48L177.13 51.803L177.135 51.8086L177.512 51.48ZM177.56 41.64L177.15 41.3533L177.149 41.355L177.56 41.64ZM182.072 37.944L182.28 38.3987L182.286 38.3957L182.072 37.944ZM192.824 37.368L192.998 36.8994L192.998 36.8994L192.824 37.368ZM196.04 39.432L196.414 39.0998L196.414 39.0998L196.04 39.432ZM196.136 45.24L196.505 45.5779L196.505 45.5779L196.136 45.24ZM190.04 44.952L189.697 44.5879L189.298 44.9639L189.709 45.3269L190.04 44.952ZM191.288 43.368L190.851 43.1251L190.846 43.1341L191.288 43.368ZM190.712 39.864L190.435 40.2801L190.444 40.2858L190.712 39.864ZM184.232 40.488L184.56 40.8659L184.566 40.8596L184.232 40.488ZM183.944 46.776L183.583 47.1223L183.59 47.1296L183.598 47.1367L183.944 46.776ZM188.312 49.56L188.543 49.1166L188.541 49.1155L188.312 49.56ZM193.4 64.152L192.978 63.8841L192.974 63.89L193.4 64.152ZM189.08 67.992L188.863 67.5417L189.08 67.992ZM182.792 68.836C181.039 68.836 179.318 68.6326 177.629 68.2259L177.395 69.1981C179.162 69.6234 180.961 69.836 182.792 69.836V68.836ZM177.631 68.2264C175.977 67.8207 174.486 67.2295 173.155 66.4557L172.653 67.3203C174.074 68.1465 175.655 68.7713 177.393 69.1976L177.631 68.2264ZM173.385 67.0239L175.785 58.5279L174.823 58.2561L172.423 66.7521L173.385 67.0239ZM175.216 58.8843L178.72 59.5083L178.896 58.5237L175.392 57.8997L175.216 58.8843ZM178.312 58.9561C178.088 60.8109 177.972 62.1343 177.972 62.904H178.972C178.972 62.2017 179.08 60.9331 179.304 59.0759L178.312 58.9561ZM177.972 62.904C177.972 63.6926 178.021 64.4365 178.121 65.1347L179.111 64.9933C179.019 64.3475 178.972 63.6514 178.972 62.904H177.972ZM178.299 65.4505C179.629 66.5421 181.116 67.1 182.744 67.1V66.1C181.364 66.1 180.099 65.6339 178.933 64.6775L178.299 65.4505ZM182.744 67.1C184.308 67.1 185.625 66.5731 186.655 65.5075L185.937 64.8125C185.111 65.6669 184.06 66.1 182.744 66.1V67.1ZM186.65 65.5136C187.722 64.4413 188.236 63.0079 188.236 61.272H187.236C187.236 62.8001 186.79 63.9587 185.942 64.8064L186.65 65.5136ZM188.236 61.272C188.236 59.8154 187.781 58.5698 186.854 57.5718L186.122 58.2522C186.859 59.0462 187.236 60.0406 187.236 61.272H188.236ZM186.867 57.5855C186.005 56.586 184.563 55.5749 182.592 54.5412L182.128 55.4268C184.061 56.4411 185.371 57.382 186.109 58.2385L186.867 57.5855ZM182.586 54.5381C180.476 53.4672 178.92 52.3344 177.889 51.1514L177.135 51.8086C178.28 53.1216 179.956 54.3248 182.134 55.4299L182.586 54.5381ZM177.894 51.157C176.919 50.0047 176.428 48.633 176.428 47.016H175.428C175.428 48.855 175.993 50.4593 177.13 51.803L177.894 51.157ZM176.428 47.016C176.428 45.0958 176.944 43.4045 177.971 41.925L177.149 41.355C176 43.0115 175.428 44.9042 175.428 47.016H176.428ZM177.97 41.9267C179.035 40.4043 180.468 39.228 182.28 38.3987L181.864 37.4893C179.9 38.388 178.325 39.6757 177.15 41.3533L177.97 41.9267ZM182.286 38.3957C184.103 37.5338 186.093 37.1 188.264 37.1V36.1C185.955 36.1 183.817 36.5622 181.858 37.4923L182.286 38.3957ZM188.264 37.1C189.876 37.1 191.336 37.3479 192.65 37.8366L192.998 36.8994C191.56 36.3641 189.98 36.1 188.264 36.1V37.1ZM192.65 37.8366C193.969 38.3276 194.965 38.9756 195.666 39.7642L196.414 39.0998C195.579 38.1604 194.431 37.4324 192.998 36.8994L192.65 37.8366ZM195.666 39.7642C196.361 40.546 196.692 41.3904 196.692 42.312H197.692C197.692 41.1216 197.255 40.046 196.414 39.0998L195.666 39.7642ZM196.692 42.312C196.692 43.3892 196.375 44.239 195.767 44.9021L196.505 45.5779C197.305 44.705 197.692 43.6028 197.692 42.312H196.692ZM195.767 44.9021C195.16 45.5652 194.414 45.892 193.496 45.892V46.892C194.69 46.892 195.704 46.4508 196.505 45.5779L195.767 44.9021ZM193.496 45.892C192.425 45.892 191.386 45.4729 190.371 44.5771L189.709 45.3269C190.87 46.3511 192.135 46.892 193.496 46.892V45.892ZM190.383 45.3161C190.958 44.7742 191.411 44.2036 191.73 43.6019L190.846 43.1341C190.589 43.6204 190.21 44.1058 189.697 44.5879L190.383 45.3161ZM191.725 43.6108C192.075 42.9813 192.268 42.3539 192.268 41.736H191.268C191.268 42.142 191.141 42.6027 190.851 43.1252L191.725 43.6108ZM192.268 41.736C192.268 40.7563 191.821 39.9772 190.98 39.4422L190.444 40.2858C191.011 40.6468 191.268 41.1157 191.268 41.736H192.268ZM190.989 39.448C190.205 38.9252 189.167 38.692 187.928 38.692V39.692C189.057 39.692 189.875 39.9068 190.435 40.28L190.989 39.448ZM187.928 38.692C186.322 38.692 184.964 39.1563 183.898 40.1164L184.566 40.8596C185.42 40.0917 186.526 39.692 187.928 39.692V38.692ZM183.905 40.1102C182.822 41.0481 182.292 42.3126 182.292 43.848H183.292C183.292 42.5674 183.722 41.5919 184.559 40.8658L183.905 40.1102ZM182.292 43.848C182.292 45.1235 182.722 46.2252 183.583 47.1223L184.305 46.4297C183.63 45.7268 183.292 44.8765 183.292 43.848H182.292ZM183.598 47.1367C184.454 47.9583 185.966 48.9136 188.083 50.0045L188.541 49.1155C186.434 48.0304 185.034 47.1297 184.29 46.4153L183.598 47.1367ZM188.081 50.0034C190.317 51.1686 191.931 52.4088 192.96 53.7101L193.744 53.0899C192.597 51.6392 190.851 50.3194 188.543 49.1166L188.081 50.0034ZM192.96 53.7101C193.971 54.9893 194.484 56.5252 194.484 58.344H195.484C195.484 56.3228 194.909 54.5627 193.744 53.0899L192.96 53.7101ZM194.484 58.344C194.484 60.4689 193.977 62.3096 192.978 63.8841L193.822 64.4199C194.935 62.6664 195.484 60.6351 195.484 58.344H194.484ZM192.974 63.89C192.003 65.468 190.638 66.6849 188.863 67.5417L189.297 68.4423C191.234 67.5071 192.749 66.164 193.826 64.414L192.974 63.89ZM188.863 67.5417C187.083 68.4009 185.063 68.836 182.792 68.836V69.836C185.193 69.836 187.365 69.3751 189.297 68.4423L188.863 67.5417ZM200.527 68.64L200.779 68.2081L200.779 68.2081L200.527 68.64ZM198.439 66.408L197.996 66.64L197.999 66.6444L198.439 66.408ZM198.799 56.724L198.342 56.5209L198.342 56.5209L198.799 56.724ZM202.147 52.728L202.417 53.1493L202.421 53.1461L202.147 52.728ZM211.183 52.008L211.018 52.4798L211.234 52.5557L211.433 52.4413L211.183 52.008ZM215.359 51.396L215.854 51.4693L215.931 50.9506L215.409 50.8985L215.359 51.396ZM215.215 52.368L215.708 52.4537L215.71 52.4413L215.215 52.368ZM213.883 60.468L213.389 60.39L213.389 60.39L213.883 60.468ZM214.711 66.372L214.564 65.8941L214.564 65.8941L214.711 66.372ZM215.575 65.976L216.048 65.8142L215.843 65.2131L215.307 65.5542L215.575 65.976ZM216.043 67.344L216.312 67.7658L216.644 67.5545L216.516 67.1822L216.043 67.344ZM213.595 68.676L213.797 69.1335L213.803 69.1307L213.595 68.676ZM208.771 68.604L208.437 68.9756L208.446 68.9844L208.457 68.9926L208.771 68.604ZM208.051 66.984H208.551V65.4006L207.642 66.6969L208.051 66.984ZM208.843 60.036L209.336 60.1226L209.336 60.1212L208.843 60.036ZM209.995 53.376L210.488 53.4612L210.559 53.0532L210.171 52.9078L209.995 53.376ZM205.495 54.168L205.826 54.543L205.832 54.5375L205.495 54.168ZM203.551 57.48L204.026 57.6358L204.027 57.6335L203.551 57.48ZM203.407 66.084L202.963 66.3134L202.969 66.3244L203.407 66.084ZM203.371 68.896C202.425 68.896 201.564 68.666 200.779 68.2081L200.275 69.0719C201.218 69.622 202.254 69.896 203.371 69.896V68.896ZM200.779 68.2081C200.004 67.7559 199.369 67.084 198.88 66.1716L197.999 66.6444C198.565 67.7 199.323 68.5161 200.275 69.0719L200.779 68.2081ZM198.882 66.176C198.4 65.2561 198.147 64.1161 198.147 62.736H197.147C197.147 64.2359 197.422 65.5439 197.996 66.64L198.882 66.176ZM198.147 62.736C198.147 60.5118 198.522 58.5794 199.256 56.9271L198.342 56.5209C197.541 58.3246 197.147 60.4002 197.147 62.736H198.147ZM199.256 56.9271C199.988 55.2804 201.042 54.0278 202.417 53.1493L201.878 52.3067C200.324 53.3002 199.146 54.7116 198.342 56.5209L199.256 56.9271ZM202.421 53.1461C203.79 52.2485 205.455 51.788 207.439 51.788V50.788C205.296 50.788 203.432 51.2875 201.873 52.3099L202.421 53.1461ZM207.439 51.788C208.497 51.788 209.688 52.0134 211.018 52.4798L211.349 51.5362C209.942 51.0426 208.637 50.788 207.439 50.788V51.788ZM211.433 52.4413C212.127 52.0414 213.042 51.824 214.207 51.824V50.824C212.924 50.824 211.823 51.0626 210.934 51.5747L211.433 52.4413ZM214.207 51.824C214.471 51.824 214.837 51.8462 215.309 51.8935L215.409 50.8985C214.922 50.8498 214.519 50.824 214.207 50.824V51.824ZM214.865 51.3227L214.721 52.2947L215.71 52.4413L215.854 51.4693L214.865 51.3227ZM214.723 52.2823C214.338 54.4937 213.894 57.1965 213.389 60.39L214.377 60.546C214.881 57.3555 215.324 54.6583 215.708 52.4537L214.723 52.2823ZM213.389 60.39C213.137 61.9869 212.948 63.2319 212.821 64.1238C212.698 64.9936 212.627 65.5716 212.627 65.796H213.627C213.627 65.6604 213.683 65.1704 213.811 64.2642C213.937 63.3801 214.125 62.1411 214.377 60.546L213.389 60.39ZM212.627 65.796C212.627 66.1195 212.713 66.4523 212.971 66.6981C213.225 66.9395 213.56 67.016 213.883 67.016V66.016C213.795 66.016 213.738 66.0054 213.704 65.9944C213.672 65.9842 213.662 65.9747 213.661 65.9739C213.661 65.9737 213.654 65.9684 213.646 65.9458C213.638 65.9206 213.627 65.8737 213.627 65.796H212.627ZM213.883 67.016C214.187 67.016 214.515 66.9557 214.858 66.8499L214.564 65.8941C214.284 65.9803 214.059 66.016 213.883 66.016V67.016ZM214.858 66.8499C215.211 66.7413 215.54 66.5909 215.844 66.3978L215.307 65.5542C215.082 65.6971 214.835 65.8107 214.564 65.8941L214.858 66.8499ZM215.102 66.1378L215.57 67.5058L216.516 67.1822L216.048 65.8142L215.102 66.1378ZM215.775 66.9222C215.002 67.414 214.206 67.847 213.387 68.2213L213.803 69.1307C214.664 68.737 215.501 68.282 216.312 67.7658L215.775 66.9222ZM213.393 68.2185C212.646 68.5484 211.827 68.716 210.931 68.716V69.716C211.955 69.716 212.913 69.5236 213.797 69.1335L213.393 68.2185ZM210.931 68.716C210.06 68.716 209.469 68.5254 209.086 68.2154L208.457 68.9926C209.082 69.4986 209.93 69.716 210.931 69.716V68.716ZM209.106 68.2324C208.732 67.8955 208.551 67.4908 208.551 66.984H207.551C207.551 67.7732 207.851 68.4485 208.437 68.9756L209.106 68.2324ZM207.642 66.6969C206.609 68.1692 205.203 68.896 203.371 68.896V69.896C205.523 69.896 207.237 69.0148 208.461 67.2711L207.642 66.6969ZM204.991 67.7C206.13 67.7 207.015 66.9022 207.691 65.6458C208.37 64.3816 208.913 62.5286 209.336 60.1226L208.351 59.9494C207.934 62.3194 207.414 64.0484 206.81 65.1722C206.201 66.3038 205.581 66.7 204.991 66.7V67.7ZM209.336 60.1212L210.488 53.4612L209.503 53.2908L208.351 59.9508L209.336 60.1212ZM210.171 52.9078C209.543 52.6722 208.907 52.552 208.267 52.552V53.552C208.779 53.552 209.296 53.6478 209.82 53.8442L210.171 52.9078ZM208.267 52.552C207.101 52.552 206.059 52.977 205.158 53.7985L205.832 54.5375C206.563 53.871 207.369 53.552 208.267 53.552V52.552ZM205.164 53.7931C204.258 54.593 203.572 55.7882 203.075 57.3265L204.027 57.6335C204.491 56.1958 205.101 55.183 205.826 54.5429L205.164 53.7931ZM203.076 57.3242C202.575 58.8533 202.331 60.6973 202.331 62.844H203.331C203.331 60.7667 203.568 59.0347 204.026 57.6358L203.076 57.3242ZM202.331 62.844C202.331 64.2916 202.525 65.4653 202.963 66.3133L203.852 65.8547C203.521 65.2147 203.331 64.2284 203.331 62.844H202.331ZM202.969 66.3244C203.433 67.1712 204.104 67.7 204.991 67.7V66.7C204.583 66.7 204.197 66.4848 203.846 65.8436L202.969 66.3244ZM219.444 68.28L219.104 68.6475L219.111 68.6537L219.444 68.28ZM219.912 56.256L219.419 56.1724L219.418 56.1774L219.912 56.256ZM220.272 54.132L220.765 54.2156L220.863 53.632H220.272V54.132ZM217.716 54.132L217.222 54.0534L217.13 54.632H217.716V54.132ZM217.968 52.548L217.801 52.0765L217.521 52.1755L217.474 52.4694L217.968 52.548ZM221.388 50.712L221.092 50.3088L221.088 50.312L221.388 50.712ZM224.052 47.976V47.476H223.786L223.637 47.6964L224.052 47.976ZM226.392 47.976L226.886 48.0506L226.973 47.476H226.392V47.976ZM225.816 51.792L225.321 51.7174L225.234 52.292H225.816V51.792ZM230.424 51.792L230.917 51.8754L231.015 51.292H230.424V51.792ZM230.028 54.132V54.632H230.45L230.521 54.2154L230.028 54.132ZM225.384 54.132V53.632H224.96L224.89 54.0498L225.384 54.132ZM225.06 56.076L224.566 55.9938L224.565 56L225.06 56.076ZM224.268 61.152L224.761 61.2302L224.762 61.2295L224.268 61.152ZM226.5 66.084L226.305 65.6235L226.298 65.6263L226.5 66.084ZM228.156 65.22L228.56 64.9259L228.281 64.5422L227.883 64.8008L228.156 65.22ZM229.02 66.408L229.362 66.7724L229.683 66.4705L229.424 66.1139L229.02 66.408ZM225.924 68.352L226.115 68.8139L226.123 68.8107L225.924 68.352ZM222.288 68.644C221.109 68.644 220.299 68.3715 219.776 67.9063L219.111 68.6537C219.884 69.3405 220.97 69.644 222.288 69.644V68.644ZM219.783 67.9126C219.285 67.4534 219.008 66.7849 219.008 65.832H218.008C218.008 66.9911 218.354 67.9546 219.104 68.6474L219.783 67.9126ZM219.008 65.832C219.008 65.7442 219.032 65.4848 219.091 65.0128C219.149 64.5556 219.236 63.9293 219.353 63.1325C219.587 61.5396 219.937 59.274 220.405 56.3346L219.418 56.1774C218.95 59.118 218.598 61.3884 218.364 62.9875C218.247 63.7867 218.158 64.4204 218.099 64.8872C218.042 65.3392 218.008 65.6678 218.008 65.832H219.008ZM220.405 56.3396L220.765 54.2156L219.779 54.0484L219.419 56.1724L220.405 56.3396ZM220.272 53.632H217.716V54.632H220.272V53.632ZM218.209 54.2106L218.461 52.6266L217.474 52.4694L217.222 54.0534L218.209 54.2106ZM218.134 53.0195C219.407 52.5703 220.592 51.934 221.688 51.112L221.088 50.312C220.072 51.074 218.976 51.6617 217.801 52.0765L218.134 53.0195ZM221.683 51.1152C222.806 50.2917 223.736 49.3388 224.466 48.2556L223.637 47.6964C222.976 48.6772 222.129 49.5483 221.092 50.3088L221.683 51.1152ZM224.052 48.476H226.392V47.476H224.052V48.476ZM225.897 47.9014L225.321 51.7174L226.31 51.8666L226.886 48.0506L225.897 47.9014ZM225.816 52.292H230.424V51.292H225.816V52.292ZM229.931 51.7086L229.535 54.0486L230.521 54.2154L230.917 51.8754L229.931 51.7086ZM230.028 53.632H225.384V54.632H230.028V53.632ZM224.89 54.0498L224.566 55.9938L225.553 56.1582L225.877 54.2142L224.89 54.0498ZM224.565 56C224.422 56.9351 224.158 58.6265 223.774 61.0745L224.762 61.2295C225.146 58.7815 225.41 57.0888 225.554 56.152L224.565 56ZM223.774 61.0738C223.582 62.2867 223.437 63.2349 223.341 63.9169C223.247 64.5778 223.192 65.0319 223.192 65.22H224.192C224.192 65.1201 224.232 64.7522 224.331 64.0571C224.426 63.3831 224.57 62.4413 224.761 61.2302L223.774 61.0738ZM223.192 65.22C223.192 65.7244 223.326 66.1927 223.681 66.5282C224.03 66.8589 224.509 66.98 225.024 66.98V65.98C224.65 65.98 224.463 65.8911 224.368 65.8018C224.279 65.7173 224.192 65.5556 224.192 65.22H223.192ZM225.024 66.98C225.509 66.98 226.076 66.8166 226.701 66.5417L226.298 65.6263C225.723 65.8794 225.306 65.98 225.024 65.98V66.98ZM226.694 66.5445C227.341 66.2711 227.919 65.9698 228.428 65.6392L227.883 64.8008C227.432 65.0942 226.906 65.3689 226.305 65.6235L226.694 66.5445ZM227.751 65.5141L228.615 66.7021L229.424 66.1139L228.56 64.9259L227.751 65.5141ZM228.677 66.0436C227.937 66.739 226.958 67.3582 225.725 67.8933L226.123 68.8107C227.434 68.2418 228.518 67.565 229.362 66.7724L228.677 66.0436ZM225.732 67.8902C224.509 68.3978 223.362 68.644 222.288 68.644V69.644C223.517 69.644 224.794 69.3622 226.115 68.8138L225.732 67.8902ZM232.287 67.452L231.943 67.8157L231.947 67.8189L232.287 67.452ZM231.567 56.508L232.016 56.7263L232.016 56.7263L231.567 56.508ZM235.023 52.692L235.281 53.1201L235.283 53.119L235.023 52.692ZM246.075 53.124L245.728 53.4843L245.731 53.4875L246.075 53.124ZM246.831 64.104L246.381 63.8857L246.379 63.8885L246.831 64.104ZM243.375 67.884L243.119 67.4541L243.116 67.4559L243.375 67.884ZM241.683 64.14L241.213 63.9674L241.212 63.9704L241.683 64.14ZM242.187 54.24L241.768 54.5136L241.774 54.523L241.781 54.5322L242.187 54.24ZM237.543 54.888L237.129 54.6063L237.128 54.6084L237.543 54.888ZM236.031 58.776L236.521 58.8755L236.521 58.8741L236.031 58.776ZM236.175 66.336L235.761 66.6173L235.769 66.6282L236.175 66.336ZM237.867 68.752C235.521 68.752 233.8 68.172 232.626 67.0851L231.947 67.8189C233.365 69.132 235.364 69.752 237.867 69.752V68.752ZM232.63 67.0883C231.49 66.0129 230.879 64.3775 230.879 62.088H229.879C229.879 64.5505 230.539 66.4911 231.943 67.8157L232.63 67.0883ZM230.879 62.088C230.879 60.0642 231.262 58.2807 232.016 56.7263L231.117 56.2897C230.287 57.9993 229.879 59.9358 229.879 62.088H230.879ZM232.016 56.7263C232.767 55.1788 233.854 53.9808 235.281 53.1201L234.764 52.2639C233.167 53.2272 231.95 54.5732 231.117 56.2897L232.016 56.7263ZM235.283 53.119C236.727 52.239 238.469 51.788 240.531 51.788V50.788C238.32 50.788 236.39 51.273 234.762 52.265L235.283 53.119ZM240.531 51.788C242.874 51.788 244.579 52.379 245.728 53.4843L246.421 52.7637C245.026 51.421 243.035 50.788 240.531 50.788V51.788ZM245.731 53.4875C246.898 54.5895 247.519 56.2276 247.519 58.488H248.519C248.519 56.0444 247.843 54.1065 246.418 52.7605L245.731 53.4875ZM247.519 58.488C247.519 60.5368 247.135 62.3321 246.381 63.8857L247.28 64.3223C248.11 62.6119 248.519 60.6632 248.519 58.488H247.519ZM246.379 63.8885C245.654 65.407 244.57 66.5925 243.119 67.4541L243.63 68.3139C245.251 67.3515 246.471 66.017 247.282 64.3195L246.379 63.8885ZM243.116 67.4559C241.698 68.3114 239.956 68.752 237.867 68.752V69.752C240.097 69.752 242.027 69.2806 243.633 68.3121L243.116 67.4559ZM238.155 67.736C239.076 67.736 239.89 67.4363 240.572 66.8378C241.244 66.2481 241.763 65.3908 242.153 64.3096L241.212 63.9704C240.858 64.9532 240.417 65.6439 239.913 66.0862C239.419 66.5197 238.841 66.736 238.155 66.736V67.736ZM242.152 64.3126C242.943 62.161 243.335 59.7614 243.335 57.12H242.335C242.335 59.6626 241.958 61.943 241.213 63.9674L242.152 64.3126ZM243.335 57.12C243.335 55.7675 243.117 54.6772 242.592 53.9478L241.781 54.5322C242.12 55.0028 242.335 55.8325 242.335 57.12H243.335ZM242.605 53.9664C242.086 53.1725 241.262 52.804 240.243 52.804V53.804C240.999 53.804 241.471 54.0595 241.768 54.5136L242.605 53.9664ZM240.243 52.804C238.965 52.804 237.923 53.4425 237.129 54.6063L237.956 55.1697C238.602 54.2215 239.36 53.804 240.243 53.804V52.804ZM237.128 54.6084C236.386 55.7083 235.862 57.0703 235.54 58.6779L236.521 58.8741C236.823 57.3617 237.307 56.1317 237.957 55.1676L237.128 54.6084ZM235.541 58.6765C235.222 60.2461 235.063 61.8514 235.063 63.492H236.063C236.063 61.9166 236.215 60.3779 236.521 58.8755L235.541 58.6765ZM235.063 63.492C235.063 64.8194 235.268 65.8914 235.761 66.6172L236.588 66.0548C236.266 65.5806 236.063 64.7566 236.063 63.492H235.063ZM235.769 66.6282C236.314 67.3858 237.142 67.736 238.155 67.736V66.736C237.391 66.736 236.899 66.4862 236.58 66.0438L235.769 66.6282ZM262.192 68.424L261.814 68.7508L262.192 68.424ZM262.228 60.72L261.736 60.6334L261.735 60.6391L262.228 60.72ZM262.516 54.276L262.104 54.5593L262.108 54.5655L262.113 54.5717L262.516 54.276ZM259.528 54.924L259.142 54.6061L259.141 54.6074L259.528 54.924ZM257.728 58.02L257.269 57.8209L257.266 57.8283L257.728 58.02ZM256.612 61.944L257.106 62.0246L257.106 62.0233L256.612 61.944ZM255.46 69V69.5H255.885L255.954 69.0806L255.46 69ZM250.384 69L249.89 68.9207L249.797 69.5H250.384V69ZM251.032 64.968L250.539 64.888L250.538 64.8887L251.032 64.968ZM250.312 53.988L249.814 54.0263L249.854 54.5492L250.374 54.4841L250.312 53.988ZM250.204 52.584L250.012 52.1225L249.678 52.2616L249.706 52.6223L250.204 52.584ZM253.552 51.684L253.467 51.1913L253.466 51.1915L253.552 51.684ZM257.224 51.288L257.469 50.8522L257.35 50.785L257.213 50.7881L257.224 51.288ZM257.8 51.612L258.3 51.634L258.313 51.3269L258.045 51.1762L257.8 51.612ZM257.656 54.888L257.157 54.866L257.073 56.7781L258.081 55.1515L257.656 54.888ZM266.8 52.476L266.447 52.8296L266.452 52.8349L266.457 52.8401L266.8 52.476ZM267.268 61.08L266.775 61.0003L266.774 61.002L267.268 61.08ZM269.068 65.976L269.538 65.8062L269.339 65.2552L268.827 65.5382L269.068 65.976ZM269.536 67.272L269.89 67.6256L270.114 67.4009L270.006 67.1022L269.536 67.272ZM267.268 68.604L267.452 69.069L267.452 69.069L267.268 68.604ZM264.496 68.716C263.482 68.716 262.89 68.4667 262.571 68.0972L261.814 68.7508C262.407 69.4373 263.35 69.716 264.496 69.716V68.716ZM262.571 68.0972C262.222 67.6931 262.008 67.0604 262.008 66.12H261.008C261.008 67.1956 261.251 68.0989 261.814 68.7508L262.571 68.0972ZM262.008 66.12C262.008 65.4986 262.239 63.7467 262.722 60.8009L261.735 60.6391C261.258 63.5493 261.008 65.3974 261.008 66.12H262.008ZM262.721 60.8066C263.174 58.2313 263.412 56.5617 263.412 55.86H262.412C262.412 56.4543 262.195 58.0247 261.736 60.6334L262.721 60.8066ZM263.412 55.86C263.412 55.1132 263.273 54.462 262.919 53.9803L262.113 54.5717C262.288 54.81 262.412 55.2148 262.412 55.86H263.412ZM262.928 53.9927C262.568 53.4683 262.039 53.2 261.4 53.2V54.2C261.721 54.2 261.937 54.3157 262.104 54.5593L262.928 53.9927ZM261.4 53.2C260.588 53.2 259.835 53.7647 259.142 54.6061L259.914 55.2419C260.565 54.4513 261.06 54.2 261.4 54.2V53.2ZM259.141 54.6074C258.456 55.4452 257.834 56.5206 257.269 57.821L258.187 58.219C258.727 56.9754 259.305 55.9868 259.915 55.2406L259.141 54.6074ZM257.266 57.8283C256.724 59.136 256.341 60.4816 256.118 61.8647L257.106 62.0233C257.316 60.7184 257.677 59.448 258.19 58.2117L257.266 57.8283ZM256.119 61.8634L254.967 68.9194L255.954 69.0806L257.106 62.0246L256.119 61.8634ZM255.46 68.5H250.384V69.5H255.46V68.5ZM250.878 69.0793L251.526 65.0473L250.538 64.8887L249.89 68.9207L250.878 69.0793ZM251.526 65.048C252.018 62.0117 252.387 59.7004 252.633 58.1147C252.756 57.3221 252.849 56.7094 252.911 56.2775C252.942 56.0617 252.965 55.8891 252.981 55.7608C252.995 55.6473 253.008 55.5346 253.008 55.464H252.008C252.008 55.4594 252.006 55.5034 251.989 55.6375C251.974 55.7567 251.952 55.9222 251.921 56.1355C251.86 56.5616 251.768 57.1699 251.645 57.9613C251.399 59.5436 251.031 61.8523 250.539 64.888L251.526 65.048ZM253.008 55.464C253.008 54.8796 252.873 54.3481 252.514 53.9624C252.149 53.57 251.635 53.416 251.068 53.416V54.416C251.461 54.416 251.667 54.52 251.782 54.6436C251.903 54.7739 252.008 55.0164 252.008 55.464H253.008ZM251.068 53.416C250.911 53.416 250.627 53.4447 250.25 53.4919L250.374 54.4841C250.765 54.4353 250.985 54.416 251.068 54.416V53.416ZM250.811 53.9497L250.703 52.5457L249.706 52.6223L249.814 54.0263L250.811 53.9497ZM250.396 53.0455C251.214 52.7048 252.291 52.4129 253.639 52.1765L253.466 51.1915C252.077 51.4351 250.922 51.7432 250.012 52.1225L250.396 53.0455ZM253.637 52.1767C255.012 51.9396 256.211 51.8112 257.236 51.7879L257.213 50.7881C256.125 50.8128 254.876 50.9484 253.467 51.1913L253.637 52.1767ZM256.979 51.7238L257.555 52.0478L258.045 51.1762L257.469 50.8522L256.979 51.7238ZM257.301 51.59L257.157 54.866L258.156 54.91L258.3 51.634L257.301 51.59ZM258.081 55.1515C259.498 52.8661 261.284 51.788 263.452 51.788V50.788C260.868 50.788 258.79 52.1099 257.231 54.6245L258.081 55.1515ZM263.452 51.788C264.799 51.788 265.773 52.1561 266.447 52.8296L267.154 52.1224C266.243 51.2119 264.985 50.788 263.452 50.788V51.788ZM266.457 52.8401C267.15 53.4917 267.524 54.4262 267.524 55.716H268.524C268.524 54.2218 268.083 52.9963 267.143 52.1119L266.457 52.8401ZM267.524 55.716C267.524 55.901 267.468 56.4224 267.34 57.3292C267.215 58.2183 267.026 59.4415 266.775 61.0003L267.762 61.1597C268.014 59.5985 268.204 58.3677 268.33 57.4688C268.454 56.5876 268.524 55.987 268.524 55.716H267.524ZM266.774 61.002C266.558 62.3709 266.396 63.4389 266.287 64.2048C266.182 64.9489 266.12 65.4517 266.12 65.652H267.12C267.12 65.5403 267.167 65.1251 267.277 64.3452C267.385 63.5871 267.546 62.5251 267.762 61.158L266.774 61.002ZM266.12 65.652C266.12 66.0145 266.199 66.3797 266.443 66.6573C266.698 66.9471 267.053 67.052 267.412 67.052V66.052C267.243 66.052 267.202 66.0069 267.194 65.9967C267.174 65.9743 267.12 65.8895 267.12 65.652H266.12ZM267.412 67.052C267.952 67.052 268.597 66.8067 269.31 66.4138L268.827 65.5382C268.147 65.9133 267.688 66.052 267.412 66.052V67.052ZM268.598 66.1458L269.066 67.4418L270.006 67.1022L269.538 65.8062L268.598 66.1458ZM269.183 66.9184C268.772 67.329 268.088 67.7422 267.084 68.139L267.452 69.069C268.512 68.6498 269.34 68.175 269.89 67.6256L269.183 66.9184ZM267.084 68.139C266.091 68.5317 265.231 68.716 264.496 68.716V69.716C265.393 69.716 266.381 69.4923 267.452 69.069L267.084 68.139ZM177.704 121.312L177.334 121.649L177.34 121.654L177.704 121.312ZM179.048 97.072L178.657 96.7605L178.657 96.7609L179.048 97.072ZM198.008 93.232L197.733 93.6493L197.736 93.6518L198.008 93.232ZM199.064 100.72L198.705 100.372L198.704 100.373L199.064 100.72ZM193.784 101.488L193.502 101.901L193.512 101.907L193.784 101.488ZM192.584 99.904L192.185 99.6021L192.032 99.8045L192.105 100.048L192.584 99.904ZM193.016 94.912L192.662 95.2656L192.668 95.2713L192.674 95.2768L193.016 94.912ZM186.2 96.928L186.613 97.2103L186.613 97.2103L186.2 96.928ZM183.512 103.792L183.021 103.695L183.021 103.695L183.512 103.792ZM196.376 117.616L196.752 117.287L196.418 116.904L196.041 117.245L196.376 117.616ZM197.72 119.152L198.064 119.515L198.413 119.185L198.096 118.823L197.72 119.152ZM192.056 123.088L191.844 122.635L191.844 122.635L192.056 123.088ZM186.392 123.98C182.677 123.98 179.931 122.952 178.068 120.97L177.34 121.654C179.445 123.896 182.491 124.98 186.392 124.98V123.98ZM178.074 120.975C176.233 118.954 175.276 116.004 175.276 112.048H174.276C174.276 116.156 175.271 119.382 177.334 121.649L178.074 120.975ZM175.276 112.048C175.276 105.717 176.685 100.849 179.439 97.3831L178.657 96.7609C175.715 100.463 174.276 105.579 174.276 112.048H175.276ZM179.439 97.3835C182.206 93.9091 186.225 92.148 191.576 92.148V91.148C185.983 91.148 181.65 93.0029 178.657 96.7605L179.439 97.3835ZM191.576 92.148C194.204 92.148 196.241 92.6649 197.733 93.6493L198.283 92.8147C196.575 91.6871 194.324 91.148 191.576 91.148V92.148ZM197.736 93.6518C199.25 94.6314 199.956 95.8607 199.956 97.36H200.956C200.956 95.4673 200.03 93.9446 198.28 92.8122L197.736 93.6518ZM199.956 97.36C199.956 98.5043 199.547 99.5013 198.705 100.372L199.423 101.068C200.437 100.019 200.956 98.7757 200.956 97.36H199.956ZM198.704 100.373C197.896 101.21 196.967 101.612 195.896 101.612V102.612C197.257 102.612 198.44 102.086 199.424 101.067L198.704 100.373ZM195.896 101.612C195.224 101.612 194.615 101.432 194.056 101.069L193.512 101.907C194.233 102.376 195.032 102.612 195.896 102.612V101.612ZM194.066 101.075C193.542 100.717 193.219 100.279 193.063 99.7603L192.105 100.048C192.333 100.809 192.81 101.427 193.502 101.901L194.066 101.075ZM192.983 100.206C193.824 99.0955 194.284 97.9837 194.284 96.88H193.284C193.284 97.6963 192.944 98.6005 192.185 99.6021L192.983 100.206ZM194.284 96.88C194.284 95.9376 193.989 95.1392 193.358 94.5472L192.674 95.2768C193.067 95.6448 193.284 96.1584 193.284 96.88H194.284ZM193.37 94.5584C192.769 93.9576 191.937 93.692 190.952 93.692V94.692C191.759 94.692 192.303 94.9064 192.662 95.2656L193.37 94.5584ZM190.952 93.692C188.84 93.692 187.112 94.7093 185.787 96.6457L186.613 97.2103C187.784 95.4987 189.224 94.692 190.952 94.692V93.692ZM185.787 96.6457C184.492 98.5384 183.575 100.894 183.021 103.695L184.003 103.889C184.537 101.186 185.412 98.9656 186.613 97.2103L185.787 96.6457ZM183.021 103.695C182.471 106.479 182.196 109.312 182.196 112.192H183.196C183.196 109.376 183.465 106.609 184.003 103.889L183.021 103.695ZM182.196 112.192C182.196 115.238 182.683 117.608 183.728 119.231C184.796 120.891 186.415 121.716 188.504 121.716V120.716C186.721 120.716 185.436 120.037 184.568 118.689C183.677 117.304 183.196 115.162 183.196 112.192H182.196ZM188.504 121.716C191.26 121.716 193.999 120.438 196.711 117.987L196.041 117.245C193.441 119.594 190.932 120.716 188.504 120.716V121.716ZM196 117.945L197.344 119.481L198.096 118.823L196.752 117.287L196 117.945ZM197.376 118.789C195.618 120.453 193.774 121.732 191.844 122.635L192.268 123.541C194.306 122.588 196.238 121.243 198.064 119.515L197.376 118.789ZM191.844 122.635C189.912 123.539 188.096 123.98 186.392 123.98V124.98C188.272 124.98 190.232 124.493 192.268 123.541L191.844 122.635ZM202.076 122.452L201.732 122.816L201.736 122.819L202.076 122.452ZM201.356 111.508L201.805 111.726L201.805 111.726L201.356 111.508ZM204.812 107.692L205.07 108.12L205.072 108.119L204.812 107.692ZM215.864 108.124L215.517 108.484L215.52 108.488L215.864 108.124ZM216.62 119.104L216.17 118.886L216.168 118.889L216.62 119.104ZM213.164 122.884L212.908 122.454L212.905 122.456L213.164 122.884ZM211.472 119.14L211.002 118.967L211.001 118.97L211.472 119.14ZM211.976 109.24L211.557 109.514L211.563 109.523L211.57 109.532L211.976 109.24ZM207.332 109.888L206.919 109.606L206.917 109.608L207.332 109.888ZM205.82 113.776L206.31 113.876L206.31 113.874L205.82 113.776ZM205.964 121.336L205.55 121.617L205.558 121.628L205.964 121.336ZM207.656 123.752C205.31 123.752 203.589 123.172 202.415 122.085L201.736 122.819C203.154 124.132 205.153 124.752 207.656 124.752V123.752ZM202.419 122.088C201.279 121.013 200.668 119.377 200.668 117.088H199.668C199.668 119.551 200.328 121.491 201.733 122.816L202.419 122.088ZM200.668 117.088C200.668 115.064 201.051 113.281 201.805 111.726L200.906 111.29C200.076 112.999 199.668 114.936 199.668 117.088H200.668ZM201.805 111.726C202.556 110.179 203.643 108.981 205.07 108.12L204.553 107.264C202.956 108.227 201.739 109.573 200.906 111.29L201.805 111.726ZM205.072 108.119C206.516 107.239 208.258 106.788 210.32 106.788V105.788C208.109 105.788 206.179 106.273 204.551 107.265L205.072 108.119ZM210.32 106.788C212.663 106.788 214.368 107.379 215.517 108.484L216.21 107.764C214.815 106.421 212.824 105.788 210.32 105.788V106.788ZM215.52 108.488C216.687 109.59 217.308 111.228 217.308 113.488H218.308C218.308 111.044 217.632 109.106 216.207 107.76L215.52 108.488ZM217.308 113.488C217.308 115.537 216.924 117.332 216.17 118.886L217.069 119.322C217.899 117.612 218.308 115.663 218.308 113.488H217.308ZM216.168 118.889C215.443 120.407 214.359 121.592 212.908 122.454L213.419 123.314C215.04 122.352 216.26 121.017 217.071 119.319L216.168 118.889ZM212.905 122.456C211.487 123.311 209.745 123.752 207.656 123.752V124.752C209.886 124.752 211.816 124.281 213.422 123.312L212.905 122.456ZM207.944 122.736C208.865 122.736 209.679 122.436 210.361 121.838C211.033 121.248 211.552 120.391 211.942 119.31L211.001 118.97C210.647 119.953 210.206 120.644 209.702 121.086C209.208 121.52 208.63 121.736 207.944 121.736V122.736ZM211.941 119.313C212.732 117.161 213.124 114.761 213.124 112.12H212.124C212.124 114.663 211.747 116.943 211.002 118.967L211.941 119.313ZM213.124 112.12C213.124 110.768 212.907 109.677 212.381 108.948L211.57 109.532C211.909 110.003 212.124 110.832 212.124 112.12H213.124ZM212.394 108.966C211.875 108.173 211.051 107.804 210.032 107.804V108.804C210.788 108.804 211.26 109.059 211.557 109.514L212.394 108.966ZM210.032 107.804C208.754 107.804 207.712 108.443 206.919 109.606L207.745 110.17C208.391 109.221 209.149 108.804 210.032 108.804V107.804ZM206.917 109.608C206.175 110.708 205.651 112.07 205.329 113.678L206.31 113.874C206.612 112.362 207.096 111.132 207.746 110.168L206.917 109.608ZM205.33 113.676C205.011 115.246 204.852 116.851 204.852 118.492H205.852C205.852 116.917 206.004 115.378 206.31 113.876L205.33 113.676ZM204.852 118.492C204.852 119.819 205.057 120.891 205.55 121.617L206.377 121.055C206.055 120.581 205.852 119.757 205.852 118.492H204.852ZM205.558 121.628C206.103 122.386 206.931 122.736 207.944 122.736V121.736C207.18 121.736 206.688 121.486 206.369 121.044L205.558 121.628ZM220.929 119.392L221.423 119.473L221.424 119.465L220.929 119.392ZM221.685 114.676L222.179 114.757L222.179 114.756L221.685 114.676ZM221.901 109.276L221.548 109.63L221.565 109.647L221.585 109.663L221.901 109.276ZM220.101 108.988L219.603 109.026L219.643 109.549L220.163 109.484L220.101 108.988ZM219.993 107.584L219.8 107.123L219.467 107.262L219.495 107.622L219.993 107.584ZM227.013 106.288L227.261 105.854L227.146 105.788H227.013V106.288ZM228.021 106.864L228.515 106.944L228.57 106.602L228.269 106.43L228.021 106.864ZM227.301 111.328L226.808 111.248L227.751 111.546L227.301 111.328ZM229.857 107.764L230.192 108.135L230.197 108.131L229.857 107.764ZM235.365 107.08L235.692 106.702L235.692 106.702L235.365 107.08ZM235.293 111.436L234.919 111.104L234.913 111.112L235.293 111.436ZM232.413 112.156L232.165 112.59L232.183 112.6L232.202 112.609L232.413 112.156ZM231.621 111.508L231.268 111.154L230.951 111.471L231.231 111.82L231.621 111.508ZM231.873 111.076L232.341 111.252L232.341 111.252L231.873 111.076ZM231.729 109.852L231.353 110.181L231.364 110.194L231.376 110.206L231.729 109.852ZM227.409 113.848L227.863 114.057L227.865 114.054L227.409 113.848ZM226.329 117.304L226.823 117.384L226.824 117.379L226.329 117.304ZM225.249 124V124.5H225.675L225.743 124.08L225.249 124ZM220.173 124L219.68 123.919L219.585 124.5H220.173V124ZM221.424 119.465C221.519 118.822 221.77 117.254 222.179 114.757L221.192 114.595C220.784 117.09 220.531 118.666 220.435 119.319L221.424 119.465ZM222.179 114.756C222.383 113.494 222.537 112.494 222.639 111.757C222.74 111.036 222.797 110.53 222.797 110.284H221.797C221.797 110.446 221.752 110.876 221.649 111.619C221.548 112.346 221.395 113.338 221.192 114.596L222.179 114.756ZM222.797 110.284C222.797 109.732 222.634 109.23 222.218 108.889L221.585 109.663C221.696 109.754 221.797 109.924 221.797 110.284H222.797ZM222.255 108.922C221.892 108.56 221.399 108.416 220.857 108.416V109.416C221.228 109.416 221.43 109.512 221.548 109.63L222.255 108.922ZM220.857 108.416C220.7 108.416 220.416 108.445 220.039 108.492L220.163 109.484C220.554 109.435 220.774 109.416 220.857 109.416V108.416ZM220.6 108.95L220.492 107.546L219.495 107.622L219.603 109.026L220.6 108.95ZM220.186 108.045C222.18 107.211 224.452 106.788 227.013 106.788V105.788C224.342 105.788 221.935 106.229 219.8 107.123L220.186 108.045ZM226.765 106.722L227.773 107.298L228.269 106.43L227.261 105.854L226.765 106.722ZM227.528 106.784L226.808 111.248L227.795 111.408L228.515 106.944L227.528 106.784ZM227.751 111.546C228.45 110.102 229.266 108.971 230.192 108.135L229.522 107.393C228.48 108.333 227.593 109.578 226.851 111.11L227.751 111.546ZM230.197 108.131C231.094 107.299 232.103 106.896 233.241 106.896V105.896C231.836 105.896 230.588 106.405 229.517 107.397L230.197 108.131ZM233.241 106.896C234.043 106.896 234.624 107.1 235.038 107.458L235.692 106.702C235.051 106.148 234.216 105.896 233.241 105.896V106.896ZM235.038 107.458C235.434 107.8 235.657 108.297 235.657 109.024H236.657C236.657 108.071 236.352 107.272 235.692 106.702L235.038 107.458ZM235.657 109.024C235.657 109.876 235.405 110.557 234.92 111.104L235.667 111.768C236.333 111.019 236.657 110.092 236.657 109.024H235.657ZM234.913 111.112C234.424 111.686 233.952 111.908 233.493 111.908V112.908C234.33 112.908 235.059 112.482 235.674 111.76L234.913 111.112ZM233.493 111.908C233.214 111.908 232.925 111.843 232.625 111.703L232.202 112.609C232.621 112.805 233.053 112.908 233.493 112.908V111.908ZM232.661 111.722C232.366 111.553 232.156 111.376 232.012 111.196L231.231 111.82C231.471 112.12 231.788 112.375 232.165 112.59L232.661 111.722ZM231.975 111.862C232.14 111.696 232.256 111.479 232.341 111.252L231.405 110.9C231.347 111.057 231.294 111.128 231.268 111.154L231.975 111.862ZM232.341 111.252C232.43 111.015 232.481 110.776 232.481 110.536H231.481C231.481 110.632 231.461 110.753 231.405 110.9L232.341 111.252ZM232.481 110.536C232.481 110.145 232.364 109.779 232.083 109.498L231.376 110.206C231.431 110.261 231.481 110.351 231.481 110.536H232.481ZM232.106 109.523C231.822 109.198 231.43 109.064 231.009 109.064V110.064C231.212 110.064 231.301 110.122 231.353 110.181L232.106 109.523ZM231.009 109.064C230.621 109.064 230.249 109.221 229.905 109.459C229.56 109.699 229.212 110.042 228.859 110.47L229.631 111.106C229.95 110.718 230.232 110.449 230.475 110.281C230.719 110.111 230.894 110.064 231.009 110.064V109.064ZM228.859 110.47C228.153 111.328 227.519 112.388 226.953 113.642L227.865 114.054C228.403 112.86 228.994 111.88 229.631 111.106L228.859 110.47ZM226.955 113.639C226.387 114.874 226.011 116.071 225.835 117.229L226.824 117.379C226.983 116.329 227.328 115.222 227.863 114.057L226.955 113.639ZM225.836 117.224L224.756 123.92L225.743 124.08L226.823 117.384L225.836 117.224ZM225.249 123.5H220.173V124.5H225.249V123.5ZM220.667 124.081L221.423 119.473L220.436 119.311L219.68 123.919L220.667 124.081ZM236.451 123.964L235.957 123.884L235.956 123.888L236.451 123.964ZM237.351 118.456L236.857 118.373L236.857 118.374L237.351 118.456ZM236.379 108.988L235.88 109.026L235.92 109.549L236.441 109.484L236.379 108.988ZM236.271 107.584L236.078 107.122L235.744 107.262L235.772 107.622L236.271 107.584ZM239.619 106.684L239.534 106.191L239.532 106.192L239.619 106.684ZM243.291 106.288L243.536 105.852L243.416 105.785L243.279 105.788L243.291 106.288ZM243.867 106.612L244.366 106.635L244.38 106.327L244.112 106.176L243.867 106.612ZM243.759 108.988L243.259 108.965L243.185 110.592L244.159 109.287L243.759 108.988ZM253.335 107.944L252.953 108.267L252.957 108.272L253.335 107.944ZM253.623 118.924L254.079 119.127L254.079 119.127L253.623 118.924ZM250.275 122.884L250.01 122.46L250.007 122.462L250.275 122.884ZM243.219 124.036L243.35 123.554L243.35 123.554L243.219 124.036ZM241.671 123.388L241.919 122.954L241.285 122.592L241.176 123.313L241.671 123.388ZM241.203 126.304L240.709 126.222L240.708 126.233L241.203 126.304ZM241.167 128.896L241.52 128.542L241.504 128.526L241.487 128.512L241.167 128.896ZM243.399 128.536L243.869 128.366L243.67 127.815L243.157 128.098L243.399 128.536ZM243.867 129.832L244.22 130.186L244.445 129.961L244.337 129.662L243.867 129.832ZM241.599 131.164L241.782 131.629L241.782 131.629L241.599 131.164ZM244.731 109.816L244.343 109.5L244.343 109.5L244.731 109.816ZM243.183 113.776L242.689 113.694L242.689 113.697L243.183 113.776ZM241.923 121.624L241.429 121.545L241.383 121.832L241.61 122.014L241.923 121.624ZM242.895 122.128L243.061 121.657L243.061 121.657L242.895 122.128ZM238.827 131.276C237.887 131.276 237.275 131.057 236.899 130.708C236.529 130.365 236.303 129.817 236.303 128.968H235.303C235.303 129.991 235.58 130.847 236.218 131.44C236.85 132.027 237.75 132.276 238.827 132.276V131.276ZM236.303 128.968C236.303 128.742 236.352 128.226 236.46 127.385C236.568 126.557 236.729 125.442 236.945 124.04L235.956 123.888C235.74 125.294 235.577 126.417 235.469 127.257C235.362 128.084 235.303 128.666 235.303 128.968H236.303ZM236.944 124.044C237.4 121.236 237.7 119.401 237.844 118.538L236.857 118.374C236.713 119.239 236.413 121.076 235.957 123.884L236.944 124.044ZM237.844 118.539C238.252 116.114 238.558 114.23 238.763 112.888C238.865 112.218 238.942 111.68 238.994 111.277C239.044 110.886 239.075 110.592 239.075 110.428H238.075C238.075 110.516 238.054 110.745 238.002 111.15C237.952 111.541 237.876 112.07 237.774 112.738C237.571 114.072 237.265 115.95 236.857 118.373L237.844 118.539ZM239.075 110.428C239.075 109.853 238.938 109.329 238.577 108.949C238.211 108.565 237.698 108.416 237.135 108.416V109.416C237.531 109.416 237.738 109.519 237.852 109.639C237.971 109.763 238.075 109.995 238.075 110.428H239.075ZM237.135 108.416C236.978 108.416 236.694 108.445 236.317 108.492L236.441 109.484C236.831 109.435 237.051 109.416 237.135 109.416V108.416ZM236.877 108.95L236.769 107.546L235.772 107.622L235.88 109.026L236.877 108.95ZM236.463 108.046C237.281 107.705 238.358 107.413 239.705 107.176L239.532 106.192C238.144 106.435 236.988 106.743 236.078 107.122L236.463 108.046ZM239.704 107.177C241.079 106.94 242.277 106.811 243.302 106.788L243.279 105.788C242.192 105.813 240.942 105.948 239.534 106.191L239.704 107.177ZM243.045 106.724L243.621 107.048L244.112 106.176L243.536 105.852L243.045 106.724ZM243.367 106.589L243.259 108.965L244.258 109.011L244.366 106.635L243.367 106.589ZM244.159 109.287C245.405 107.619 247.09 106.788 249.267 106.788V105.788C246.788 105.788 244.8 106.757 243.358 108.689L244.159 109.287ZM249.267 106.788C250.932 106.788 252.133 107.3 252.953 108.267L253.716 107.621C252.664 106.38 251.153 105.788 249.267 105.788V106.788ZM252.957 108.272C253.809 109.252 254.275 110.724 254.275 112.768H255.275C255.275 110.588 254.78 108.844 253.712 107.616L252.957 108.272ZM254.275 112.768C254.275 115.091 253.899 117.071 253.166 118.721L254.079 119.127C254.882 117.321 255.275 115.197 255.275 112.768H254.275ZM253.166 118.721C252.434 120.367 251.381 121.606 250.01 122.46L250.539 123.308C252.096 122.338 253.275 120.937 254.079 119.127L253.166 118.721ZM250.007 122.462C248.66 123.315 247.04 123.752 245.127 123.752V124.752C247.197 124.752 249.009 124.277 250.542 123.306L250.007 122.462ZM245.127 123.752C244.412 123.752 243.823 123.683 243.35 123.554L243.087 124.518C243.67 124.677 244.353 124.752 245.127 124.752V123.752ZM243.35 123.554C242.865 123.421 242.388 123.222 241.919 122.954L241.422 123.822C241.961 124.13 242.516 124.363 243.087 124.518L243.35 123.554ZM241.176 123.313C241.057 124.102 240.901 125.071 240.709 126.222L241.696 126.386C241.888 125.233 242.044 124.258 242.165 123.463L241.176 123.313ZM240.708 126.233C240.623 126.823 240.56 127.291 240.517 127.638C240.476 127.971 240.451 128.223 240.451 128.356H241.451C241.451 128.297 241.467 128.111 241.51 127.76C241.551 127.423 241.614 126.961 241.698 126.375L240.708 126.233ZM240.451 128.356C240.451 128.699 240.558 129.04 240.846 129.28L241.487 128.512C241.481 128.507 241.475 128.501 241.469 128.485C241.461 128.467 241.451 128.427 241.451 128.356H240.451ZM240.813 129.25C241.067 129.504 241.395 129.612 241.743 129.612V128.612C241.61 128.612 241.554 128.576 241.52 128.542L240.813 129.25ZM241.743 129.612C242.283 129.612 242.928 129.367 243.64 128.974L243.157 128.098C242.477 128.473 242.018 128.612 241.743 128.612V129.612ZM242.928 128.706L243.396 130.002L244.337 129.662L243.869 128.366L242.928 128.706ZM243.513 129.478C243.102 129.889 242.419 130.302 241.415 130.699L241.782 131.629C242.843 131.21 243.671 130.735 244.22 130.186L243.513 129.478ZM241.415 130.699C240.422 131.092 239.561 131.276 238.827 131.276V132.276C239.724 132.276 240.712 132.052 241.782 131.629L241.415 130.699ZM244.191 122.844C245.207 122.844 246.113 122.575 246.885 122.021C247.652 121.471 248.257 120.662 248.715 119.631L247.802 119.225C247.396 120.138 246.891 120.787 246.302 121.209C245.718 121.627 245.022 121.844 244.191 121.844V122.844ZM248.715 119.631C249.615 117.608 250.055 115.195 250.055 112.408H249.055C249.055 115.093 248.63 117.36 247.802 119.225L248.715 119.631ZM250.055 112.408C250.055 111.057 249.867 109.964 249.432 109.192C248.974 108.379 248.251 107.948 247.323 107.948V108.948C247.882 108.948 248.276 109.177 248.561 109.684C248.87 110.232 249.055 111.119 249.055 112.408H250.055ZM247.323 107.948C246.158 107.948 245.161 108.497 244.343 109.5L245.118 110.132C245.788 109.311 246.519 108.948 247.323 108.948V107.948ZM244.343 109.5C243.524 110.504 242.985 111.919 242.689 113.694L243.676 113.858C243.956 112.177 244.449 110.952 245.118 110.132L244.343 109.5ZM242.689 113.697L241.429 121.545L242.416 121.703L243.676 113.855L242.689 113.697ZM241.61 122.014C241.908 122.253 242.287 122.444 242.728 122.599L243.061 121.657C242.686 121.524 242.417 121.379 242.235 121.234L241.61 122.014ZM242.728 122.599C243.192 122.763 243.681 122.844 244.191 122.844V121.844C243.788 121.844 243.413 121.781 243.061 121.657L242.728 122.599ZM258.958 122.452L258.615 122.816L258.619 122.819L258.958 122.452ZM258.238 111.508L258.688 111.726L258.688 111.726L258.238 111.508ZM261.694 107.692L261.953 108.12L261.955 108.119L261.694 107.692ZM272.746 108.124L272.4 108.484L272.403 108.488L272.746 108.124ZM273.502 119.104L273.053 118.886L273.051 118.889L273.502 119.104ZM270.046 122.884L269.791 122.454L269.788 122.456L270.046 122.884ZM268.354 119.14L267.885 118.967L267.884 118.97L268.354 119.14ZM268.858 109.24L268.44 109.514L268.446 109.523L268.453 109.532L268.858 109.24ZM264.214 109.888L263.801 109.606L263.8 109.608L264.214 109.888ZM262.702 113.776L263.192 113.876L263.193 113.874L262.702 113.776ZM262.846 121.336L262.433 121.617L262.441 121.628L262.846 121.336ZM264.538 123.752C262.193 123.752 260.472 123.172 259.298 122.085L258.619 122.819C260.037 124.132 262.036 124.752 264.538 124.752V123.752ZM259.302 122.088C258.162 121.013 257.55 119.377 257.55 117.088H256.55C256.55 119.551 257.211 121.491 258.615 122.816L259.302 122.088ZM257.55 117.088C257.55 115.064 257.934 113.281 258.688 111.726L257.789 111.29C256.959 112.999 256.55 114.936 256.55 117.088H257.55ZM258.688 111.726C259.439 110.179 260.526 108.981 261.953 108.12L261.436 107.264C259.839 108.227 258.622 109.573 257.789 111.29L258.688 111.726ZM261.955 108.119C263.399 107.239 265.141 106.788 267.202 106.788V105.788C264.992 105.788 263.062 106.273 261.434 107.265L261.955 108.119ZM267.202 106.788C269.546 106.788 271.251 107.379 272.4 108.484L273.093 107.764C271.698 106.421 269.707 105.788 267.202 105.788V106.788ZM272.403 108.488C273.57 109.59 274.19 111.228 274.19 113.488H275.19C275.19 111.044 274.515 109.106 273.09 107.76L272.403 108.488ZM274.19 113.488C274.19 115.537 273.807 117.332 273.053 118.886L273.952 119.322C274.782 117.612 275.19 115.663 275.19 113.488H274.19ZM273.051 118.889C272.326 120.407 271.242 121.592 269.791 122.454L270.302 123.314C271.923 122.352 273.143 121.017 273.954 119.319L273.051 118.889ZM269.788 122.456C268.37 123.311 266.628 123.752 264.538 123.752V124.752C266.769 124.752 268.699 124.281 270.305 123.312L269.788 122.456ZM264.826 122.736C265.748 122.736 266.562 122.436 267.244 121.838C267.916 121.248 268.435 120.391 268.825 119.31L267.884 118.97C267.53 119.953 267.089 120.644 266.585 121.086C266.091 121.52 265.513 121.736 264.826 121.736V122.736ZM268.824 119.313C269.615 117.161 270.006 114.761 270.006 112.12H269.006C269.006 114.663 268.63 116.943 267.885 118.967L268.824 119.313ZM270.006 112.12C270.006 110.768 269.789 109.677 269.264 108.948L268.453 109.532C268.792 110.003 269.006 110.832 269.006 112.12H270.006ZM269.277 108.966C268.758 108.173 267.934 107.804 266.914 107.804V108.804C267.671 108.804 268.143 109.059 268.44 109.514L269.277 108.966ZM266.914 107.804C265.637 107.804 264.595 108.443 263.801 109.606L264.628 110.17C265.274 109.221 266.032 108.804 266.914 108.804V107.804ZM263.8 109.608C263.058 110.708 262.534 112.07 262.212 113.678L263.193 113.874C263.495 112.362 263.979 111.132 264.629 110.168L263.8 109.608ZM262.212 113.676C261.894 115.246 261.734 116.851 261.734 118.492H262.734C262.734 116.917 262.887 115.378 263.192 113.876L262.212 113.676ZM261.734 118.492C261.734 119.819 261.939 120.891 262.433 121.617L263.26 121.055C262.937 120.581 262.734 119.757 262.734 118.492H261.734ZM262.441 121.628C262.986 122.386 263.814 122.736 264.826 122.736V121.736C264.063 121.736 263.571 121.486 263.252 121.044L262.441 121.628ZM277.812 119.392L278.305 119.473L278.307 119.465L277.812 119.392ZM278.568 114.676L279.061 114.757L279.062 114.756L278.568 114.676ZM278.784 109.276L278.43 109.63L278.448 109.647L278.467 109.663L278.784 109.276ZM276.984 108.988L276.486 109.026L276.526 109.549L277.046 109.484L276.984 108.988ZM276.876 107.584L276.683 107.123L276.35 107.262L276.378 107.622L276.876 107.584ZM283.896 106.288L284.144 105.854L284.029 105.788H283.896V106.288ZM284.904 106.864L285.398 106.944L285.453 106.602L285.152 106.43L284.904 106.864ZM284.184 111.328L283.69 111.248L284.634 111.546L284.184 111.328ZM286.74 107.764L287.075 108.135L287.08 108.131L286.74 107.764ZM292.248 107.08L292.575 106.702L292.575 106.702L292.248 107.08ZM292.176 111.436L291.802 111.104L291.795 111.112L292.176 111.436ZM289.296 112.156L289.048 112.59L289.066 112.6L289.085 112.609L289.296 112.156ZM288.504 111.508L288.15 111.154L287.834 111.471L288.114 111.82L288.504 111.508ZM288.756 111.076L289.224 111.252L289.224 111.252L288.756 111.076ZM288.612 109.852L288.236 110.181L288.247 110.194L288.258 110.206L288.612 109.852ZM284.292 113.848L284.746 114.057L284.748 114.054L284.292 113.848ZM283.212 117.304L283.706 117.384L283.706 117.379L283.212 117.304ZM282.132 124V124.5H282.558L282.626 124.08L282.132 124ZM277.056 124L276.563 123.919L276.467 124.5H277.056V124ZM278.307 119.465C278.402 118.822 278.653 117.254 279.061 114.757L278.075 114.595C277.667 117.09 277.414 118.666 277.317 119.319L278.307 119.465ZM279.062 114.756C279.266 113.494 279.42 112.494 279.522 111.757C279.623 111.036 279.68 110.53 279.68 110.284H278.68C278.68 110.446 278.635 110.876 278.532 111.619C278.431 112.346 278.278 113.338 278.074 114.596L279.062 114.756ZM279.68 110.284C279.68 109.732 279.517 109.23 279.101 108.889L278.467 109.663C278.579 109.754 278.68 109.924 278.68 110.284H279.68ZM279.138 108.922C278.775 108.56 278.282 108.416 277.74 108.416V109.416C278.11 109.416 278.313 109.512 278.43 109.63L279.138 108.922ZM277.74 108.416C277.583 108.416 277.299 108.445 276.922 108.492L277.046 109.484C277.437 109.435 277.657 109.416 277.74 109.416V108.416ZM277.483 108.95L277.375 107.546L276.378 107.622L276.486 109.026L277.483 108.95ZM277.069 108.045C279.063 107.211 281.335 106.788 283.896 106.788V105.788C281.225 105.788 278.818 106.229 276.683 107.123L277.069 108.045ZM283.648 106.722L284.656 107.298L285.152 106.43L284.144 105.854L283.648 106.722ZM284.41 106.784L283.69 111.248L284.678 111.408L285.398 106.944L284.41 106.784ZM284.634 111.546C285.333 110.102 286.149 108.971 287.075 108.135L286.405 107.393C285.363 108.333 284.475 109.578 283.734 111.11L284.634 111.546ZM287.08 108.131C287.977 107.299 288.985 106.896 290.124 106.896V105.896C288.719 105.896 287.471 106.405 286.4 107.397L287.08 108.131ZM290.124 106.896C290.926 106.896 291.507 107.1 291.921 107.458L292.575 106.702C291.933 106.148 291.098 105.896 290.124 105.896V106.896ZM291.921 107.458C292.317 107.8 292.54 108.297 292.54 109.024H293.54C293.54 108.071 293.235 107.272 292.575 106.702L291.921 107.458ZM292.54 109.024C292.54 109.876 292.288 110.557 291.802 111.104L292.55 111.768C293.216 111.019 293.54 110.092 293.54 109.024H292.54ZM291.795 111.112C291.307 111.686 290.835 111.908 290.376 111.908V112.908C291.213 112.908 291.941 112.482 292.557 111.76L291.795 111.112ZM290.376 111.908C290.096 111.908 289.808 111.843 289.507 111.703L289.085 112.609C289.504 112.805 289.936 112.908 290.376 112.908V111.908ZM289.544 111.722C289.249 111.553 289.038 111.376 288.894 111.196L288.114 111.82C288.354 112.12 288.671 112.375 289.048 112.59L289.544 111.722ZM288.858 111.862C289.023 111.696 289.139 111.479 289.224 111.252L288.288 110.9C288.229 111.057 288.177 111.128 288.15 111.154L288.858 111.862ZM289.224 111.252C289.313 111.015 289.364 110.776 289.364 110.536H288.364C288.364 110.632 288.343 110.753 288.288 110.9L289.224 111.252ZM289.364 110.536C289.364 110.145 289.247 109.779 288.966 109.498L288.258 110.206C288.313 110.261 288.364 110.351 288.364 110.536H289.364ZM288.988 109.523C288.705 109.198 288.313 109.064 287.892 109.064V110.064C288.095 110.064 288.184 110.122 288.236 110.181L288.988 109.523ZM287.892 109.064C287.504 109.064 287.132 109.221 286.788 109.459C286.443 109.699 286.095 110.042 285.742 110.47L286.514 111.106C286.833 110.718 287.115 110.449 287.358 110.281C287.602 110.111 287.777 110.064 287.892 110.064V109.064ZM285.742 110.47C285.036 111.328 284.402 112.388 283.836 113.642L284.748 114.054C285.286 112.86 285.877 111.88 286.514 111.106L285.742 110.47ZM283.838 113.639C283.27 114.874 282.894 116.071 282.718 117.229L283.706 117.379C283.866 116.329 284.21 115.222 284.746 114.057L283.838 113.639ZM282.718 117.224L281.638 123.92L282.626 124.08L283.706 117.384L282.718 117.224ZM282.132 123.5H277.056V124.5H282.132V123.5ZM277.549 124.081L278.305 119.473L277.319 119.311L276.563 123.919L277.549 124.081ZM295.754 123.64L296.006 123.208L296.006 123.208L295.754 123.64ZM293.666 121.408L293.223 121.64L293.225 121.644L293.666 121.408ZM294.026 111.724L293.569 111.521L293.569 111.521L294.026 111.724ZM297.374 107.728L297.643 108.149L297.648 108.146L297.374 107.728ZM306.41 107.008L306.244 107.48L306.461 107.556L306.659 107.441L306.41 107.008ZM310.586 106.396L311.08 106.469L311.157 105.951L310.636 105.898L310.586 106.396ZM310.442 107.368L310.935 107.454L310.936 107.441L310.442 107.368ZM309.11 115.468L308.616 115.39L308.616 115.39L309.11 115.468ZM309.938 121.372L309.791 120.894L309.791 120.894L309.938 121.372ZM310.802 120.976L311.275 120.814L311.069 120.213L310.533 120.554L310.802 120.976ZM311.27 122.344L311.538 122.766L311.87 122.555L311.743 122.182L311.27 122.344ZM308.822 123.676L309.024 124.133L309.03 124.131L308.822 123.676ZM303.998 123.604L303.663 123.976L303.673 123.984L303.683 123.993L303.998 123.604ZM303.278 121.984H303.778V120.401L302.868 121.697L303.278 121.984ZM304.07 115.036L304.562 115.123L304.562 115.121L304.07 115.036ZM305.222 108.376L305.714 108.461L305.785 108.053L305.397 107.908L305.222 108.376ZM300.722 109.168L301.053 109.543L301.059 109.537L300.722 109.168ZM298.778 112.48L299.253 112.636L299.254 112.634L298.778 112.48ZM298.634 121.084L298.189 121.313L298.195 121.324L298.634 121.084ZM298.598 123.896C297.651 123.896 296.791 123.666 296.006 123.208L295.502 124.072C296.445 124.622 297.48 124.896 298.598 124.896V123.896ZM296.006 123.208C295.23 122.756 294.596 122.084 294.106 121.172L293.225 121.644C293.792 122.7 294.549 123.516 295.502 124.072L296.006 123.208ZM294.109 121.176C293.627 120.256 293.374 119.116 293.374 117.736H292.374C292.374 119.236 292.649 120.544 293.223 121.64L294.109 121.176ZM293.374 117.736C293.374 115.512 293.748 113.579 294.483 111.927L293.569 111.521C292.767 113.325 292.374 115.4 292.374 117.736H293.374ZM294.483 111.927C295.215 110.28 296.269 109.028 297.643 108.149L297.104 107.307C295.551 108.3 294.373 109.712 293.569 111.521L294.483 111.927ZM297.648 108.146C299.017 107.249 300.681 106.788 302.666 106.788V105.788C300.522 105.788 298.659 106.287 297.1 107.31L297.648 108.146ZM302.666 106.788C303.724 106.788 304.915 107.013 306.244 107.48L306.575 106.536C305.169 106.043 303.864 105.788 302.666 105.788V106.788ZM306.659 107.441C307.354 107.041 308.269 106.824 309.434 106.824V105.824C308.151 105.824 307.05 106.063 306.16 106.575L306.659 107.441ZM309.434 106.824C309.698 106.824 310.063 106.846 310.536 106.894L310.636 105.898C310.148 105.85 309.746 105.824 309.434 105.824V106.824ZM310.091 106.323L309.947 107.295L310.936 107.441L311.08 106.469L310.091 106.323ZM309.949 107.282C309.565 109.494 309.12 112.196 308.616 115.39L309.604 115.546C310.107 112.356 310.551 109.658 310.934 107.454L309.949 107.282ZM308.616 115.39C308.364 116.987 308.174 118.232 308.048 119.124C307.924 119.994 307.854 120.572 307.854 120.796H308.854C308.854 120.66 308.909 120.17 309.038 119.264C309.163 118.38 309.352 117.141 309.604 115.546L308.616 115.39ZM307.854 120.796C307.854 121.119 307.94 121.452 308.198 121.698C308.451 121.939 308.787 122.016 309.11 122.016V121.016C309.022 121.016 308.965 121.005 308.93 120.994C308.898 120.984 308.888 120.975 308.888 120.974C308.887 120.974 308.881 120.968 308.873 120.946C308.864 120.921 308.854 120.874 308.854 120.796H307.854ZM309.11 122.016C309.414 122.016 309.741 121.956 310.085 121.85L309.791 120.894C309.51 120.98 309.286 121.016 309.11 121.016V122.016ZM310.085 121.85C310.438 121.741 310.767 121.591 311.07 121.398L310.533 120.554C310.309 120.697 310.062 120.811 309.791 120.894L310.085 121.85ZM310.329 121.138L310.797 122.506L311.743 122.182L311.275 120.814L310.329 121.138ZM311.001 121.922C310.228 122.414 309.433 122.847 308.614 123.221L309.03 124.131C309.891 123.737 310.727 123.282 311.538 122.766L311.001 121.922ZM308.62 123.219C307.872 123.548 307.054 123.716 306.158 123.716V124.716C307.182 124.716 308.139 124.524 309.024 124.133L308.62 123.219ZM306.158 123.716C305.287 123.716 304.695 123.525 304.312 123.215L303.683 123.993C304.308 124.499 305.157 124.716 306.158 124.716V123.716ZM304.332 123.232C303.958 122.896 303.778 122.491 303.778 121.984H302.778C302.778 122.773 303.078 123.448 303.663 123.976L304.332 123.232ZM302.868 121.697C301.836 123.169 300.43 123.896 298.598 123.896V124.896C300.75 124.896 302.464 124.015 303.687 122.271L302.868 121.697ZM300.218 122.7C301.357 122.7 302.242 121.902 302.917 120.646C303.597 119.382 304.139 117.529 304.562 115.123L303.577 114.949C303.161 117.319 302.641 119.048 302.036 120.172C301.428 121.304 300.807 121.7 300.218 121.7V122.7ZM304.562 115.121L305.714 108.461L304.729 108.291L303.577 114.951L304.562 115.121ZM305.397 107.908C304.769 107.672 304.134 107.552 303.494 107.552V108.552C304.006 108.552 304.523 108.648 305.046 108.844L305.397 107.908ZM303.494 107.552C302.328 107.552 301.286 107.977 300.385 108.799L301.059 109.537C301.79 108.871 302.596 108.552 303.494 108.552V107.552ZM300.391 108.793C299.484 109.593 298.798 110.788 298.302 112.326L299.254 112.634C299.717 111.196 300.327 110.183 301.053 109.543L300.391 108.793ZM298.303 112.324C297.801 113.853 297.558 115.697 297.558 117.844H298.558C298.558 115.767 298.794 114.035 299.253 112.636L298.303 112.324ZM297.558 117.844C297.558 119.292 297.752 120.465 298.19 121.313L299.078 120.855C298.748 120.215 298.558 119.228 298.558 117.844H297.558ZM298.195 121.324C298.66 122.171 299.33 122.7 300.218 122.7V121.7C299.81 121.7 299.424 121.485 299.072 120.844L298.195 121.324ZM314.67 123.28L314.331 123.647L314.338 123.654L314.67 123.28ZM315.138 111.256L314.645 111.172L314.644 111.177L315.138 111.256ZM315.498 109.132L315.991 109.216L316.09 108.632H315.498V109.132ZM312.942 109.132L312.448 109.053L312.356 109.632H312.942V109.132ZM313.194 107.548L313.028 107.077L312.747 107.176L312.7 107.469L313.194 107.548ZM316.614 105.712L316.318 105.309L316.314 105.312L316.614 105.712ZM319.278 102.976V102.476H319.012L318.864 102.696L319.278 102.976ZM321.618 102.976L322.113 103.051L322.199 102.476H321.618V102.976ZM321.042 106.792L320.548 106.717L320.461 107.292H321.042V106.792ZM325.65 106.792L326.143 106.875L326.242 106.292H325.65V106.792ZM325.254 109.132V109.632H325.677L325.747 109.215L325.254 109.132ZM320.61 109.132V108.632H320.187L320.117 109.05L320.61 109.132ZM320.286 111.076L319.793 110.994L319.792 111L320.286 111.076ZM319.494 116.152L319.988 116.23L319.988 116.229L319.494 116.152ZM321.726 121.084L321.531 120.623L321.525 120.626L321.726 121.084ZM323.382 120.22L323.786 119.926L323.507 119.542L323.11 119.801L323.382 120.22ZM324.246 121.408L324.588 121.772L324.91 121.471L324.65 121.114L324.246 121.408ZM321.15 123.352L321.342 123.814L321.349 123.811L321.15 123.352ZM317.514 123.644C316.335 123.644 315.526 123.371 315.002 122.906L314.338 123.654C315.111 124.341 316.197 124.644 317.514 124.644V123.644ZM315.009 122.913C314.512 122.453 314.234 121.785 314.234 120.832H313.234C313.234 121.991 313.58 122.955 314.331 123.647L315.009 122.913ZM314.234 120.832C314.234 120.744 314.258 120.485 314.318 120.013C314.376 119.556 314.463 118.929 314.58 118.133C314.813 116.54 315.164 114.274 315.632 111.335L314.644 111.177C314.176 114.118 313.825 116.388 313.59 117.987C313.473 118.787 313.385 119.42 313.326 119.887C313.269 120.339 313.234 120.668 313.234 120.832H314.234ZM315.631 111.34L315.991 109.216L315.005 109.048L314.645 111.172L315.631 111.34ZM315.498 108.632H312.942V109.632H315.498V108.632ZM313.436 109.211L313.688 107.627L312.7 107.469L312.448 109.053L313.436 109.211ZM313.361 108.019C314.633 107.57 315.818 106.934 316.914 106.112L316.314 105.312C315.298 106.074 314.203 106.662 313.028 107.077L313.361 108.019ZM316.91 106.115C318.033 105.292 318.962 104.339 319.693 103.256L318.864 102.696C318.202 103.677 317.356 104.548 316.318 105.309L316.91 106.115ZM319.278 103.476H321.618V102.476H319.278V103.476ZM321.124 102.901L320.548 106.717L321.537 106.867L322.113 103.051L321.124 102.901ZM321.042 107.292H325.65V106.292H321.042V107.292ZM325.157 106.709L324.761 109.049L325.747 109.215L326.143 106.875L325.157 106.709ZM325.254 108.632H320.61V109.632H325.254V108.632ZM320.117 109.05L319.793 110.994L320.779 111.158L321.103 109.214L320.117 109.05ZM319.792 111C319.648 111.935 319.384 113.626 319 116.075L319.988 116.229C320.372 113.782 320.636 112.089 320.78 111.152L319.792 111ZM319 116.074C318.808 117.287 318.664 118.235 318.567 118.917C318.473 119.578 318.418 120.032 318.418 120.22H319.418C319.418 120.12 319.459 119.752 319.557 119.057C319.653 118.383 319.796 117.441 319.988 116.23L319 116.074ZM318.418 120.22C318.418 120.724 318.553 121.193 318.908 121.528C319.257 121.859 319.736 121.98 320.25 121.98V120.98C319.876 120.98 319.689 120.891 319.595 120.802C319.505 120.717 319.418 120.556 319.418 120.22H318.418ZM320.25 121.98C320.736 121.98 321.303 121.817 321.927 121.542L321.525 120.626C320.95 120.879 320.532 120.98 320.25 120.98V121.98ZM321.921 121.544C322.567 121.271 323.146 120.97 323.655 120.639L323.11 119.801C322.658 120.094 322.133 120.369 321.531 120.624L321.921 121.544ZM322.978 120.514L323.842 121.702L324.65 121.114L323.786 119.926L322.978 120.514ZM323.904 121.044C323.164 121.739 322.184 122.358 320.951 122.893L321.349 123.811C322.66 123.242 323.745 122.565 324.588 121.772L323.904 121.044ZM320.958 122.89C319.736 123.398 318.589 123.644 317.514 123.644V124.644C318.743 124.644 320.021 124.362 321.342 123.814L320.958 122.89ZM327.477 122.38L327.124 122.734L327.127 122.737L327.477 122.38ZM326.829 111.58L326.383 111.354L326.383 111.354L326.829 111.58ZM330.393 107.692L330.136 107.263L330.133 107.265L330.393 107.692ZM340.257 107.332L340.541 106.921L340.541 106.921L340.257 107.332ZM338.853 114.748L339.104 115.18L339.108 115.178L338.853 114.748ZM330.717 116.44V115.94H330.281L330.222 116.372L330.717 116.44ZM331.473 120.868L331.113 121.215L331.12 121.222L331.473 120.868ZM336.837 121.228L336.669 120.757L336.665 120.758L336.837 121.228ZM339.465 119.788L339.847 119.465L339.531 119.092L339.151 119.399L339.465 119.788ZM340.653 121.192L340.973 121.576L341.36 121.254L341.035 120.869L340.653 121.192ZM336.801 123.46L336.978 123.928L336.983 123.926L336.801 123.46ZM331.041 114.352L330.55 114.257L330.433 114.866L331.052 114.852L331.041 114.352ZM334.101 113.704L333.906 113.244L333.906 113.244L334.101 113.704ZM336.405 112.12L336.032 111.787L336.031 111.788L336.405 112.12ZM336.837 108.556L336.471 108.896L336.471 108.896L336.837 108.556ZM332.625 109.636L332.203 109.368L332.202 109.37L332.625 109.636ZM332.625 123.752C330.567 123.752 328.987 123.161 327.827 122.023L327.127 122.737C328.512 124.095 330.364 124.752 332.625 124.752V123.752ZM327.831 122.026C326.671 120.867 326.069 119.288 326.069 117.232H325.069C325.069 119.496 325.739 121.349 327.124 122.734L327.831 122.026ZM326.069 117.232C326.069 115.188 326.475 113.383 327.275 111.806L326.383 111.354C325.503 113.089 325.069 115.052 325.069 117.232H326.069ZM327.275 111.806C328.074 110.23 329.199 109.005 330.653 108.119L330.133 107.265C328.515 108.251 327.264 109.618 326.383 111.354L327.275 111.806ZM330.65 108.121C332.124 107.237 333.832 106.788 335.793 106.788V105.788C333.674 105.788 331.783 106.275 330.136 107.263L330.65 108.121ZM335.793 106.788C337.716 106.788 339.085 107.13 339.973 107.743L340.541 106.921C339.413 106.142 337.806 105.788 335.793 105.788V106.788ZM339.973 107.743C340.867 108.361 341.269 109.104 341.269 109.996H342.269C342.269 108.728 341.663 107.695 340.541 106.921L339.973 107.743ZM341.269 109.996C341.269 111.811 340.412 113.243 338.598 114.318L339.108 115.178C341.182 113.949 342.269 112.213 342.269 109.996H341.269ZM338.602 114.316C336.765 115.381 334.153 115.94 330.717 115.94V116.94C334.241 116.94 337.053 116.371 339.104 115.18L338.602 114.316ZM330.222 116.372C330.124 117.082 330.073 117.706 330.073 118.24H331.073C331.073 117.766 331.118 117.19 331.212 116.508L330.222 116.372ZM330.073 118.24C330.073 119.457 330.399 120.472 331.113 121.215L331.834 120.521C331.348 120.016 331.073 119.279 331.073 118.24H330.073ZM331.12 121.222C331.839 121.941 332.834 122.268 334.029 122.268V121.268C333.016 121.268 332.307 120.995 331.827 120.514L331.12 121.222ZM334.029 122.268C334.985 122.268 335.98 122.074 337.009 121.698L336.665 120.758C335.727 121.102 334.849 121.268 334.029 121.268V122.268ZM337.005 121.699C338.06 121.322 338.986 120.816 339.779 120.177L339.151 119.399C338.456 119.96 337.63 120.414 336.669 120.757L337.005 121.699ZM339.083 120.111L340.271 121.515L341.035 120.869L339.847 119.465L339.083 120.111ZM340.333 120.808C339.223 121.733 337.986 122.461 336.62 122.994L336.983 123.926C338.448 123.355 339.779 122.571 340.973 121.576L340.333 120.808ZM336.624 122.993C335.284 123.501 333.952 123.752 332.625 123.752V124.752C334.082 124.752 335.534 124.475 336.978 123.927L336.624 122.993ZM331.052 114.852C332.193 114.827 333.276 114.598 334.297 114.164L333.906 113.244C333.006 113.626 332.049 113.829 331.03 113.852L331.052 114.852ZM334.297 114.164C335.311 113.733 336.145 113.166 336.779 112.452L336.031 111.788C335.514 112.37 334.811 112.859 333.906 113.244L334.297 114.164ZM336.778 112.453C337.445 111.706 337.805 110.872 337.805 109.96H336.805C336.805 110.584 336.565 111.19 336.032 111.787L336.778 112.453ZM337.805 109.96C337.805 109.274 337.625 108.67 337.204 108.216L336.471 108.896C336.673 109.114 336.805 109.446 336.805 109.96H337.805ZM337.204 108.216C336.767 107.745 336.144 107.552 335.433 107.552V108.552C335.97 108.552 336.284 108.695 336.471 108.896L337.204 108.216ZM335.433 107.552C334.053 107.552 332.962 108.175 332.203 109.368L333.047 109.904C333.632 108.985 334.413 108.552 335.433 108.552V107.552ZM332.202 109.37C331.505 110.48 330.962 112.124 330.55 114.257L331.532 114.447C331.936 112.356 332.45 110.856 333.049 109.902L332.202 109.37ZM349.941 122.032L349.862 121.538L349.491 121.598L349.445 121.971L349.941 122.032ZM351.909 121.552L352.085 122.02L352.098 122.015L352.11 122.01L351.909 121.552ZM353.397 120.592L353.725 120.97L353.863 120.85L353.891 120.67L353.397 120.592ZM357.381 95.392L357.875 95.4701L357.91 95.252L357.772 95.0797L357.381 95.392ZM356.085 94.528L355.862 94.9752L355.876 94.9825L355.891 94.9888L356.085 94.528ZM354.213 93.952L353.719 93.8796L353.646 94.376L354.143 94.447L354.213 93.952ZM354.501 91.984V91.484H354.069L354.007 91.9116L354.501 91.984ZM368.709 91.984L369.204 92.0564L369.288 91.484H368.709V91.984ZM368.421 93.952L368.509 94.4442L368.864 94.3809L368.916 94.0244L368.421 93.952ZM366.117 94.528L366.268 95.0048L366.275 95.0025L366.283 94.9999L366.117 94.528ZM364.437 95.392L364.137 94.992L363.976 95.1133L363.944 95.313L364.437 95.392ZM360.597 119.392L360.104 119.313L360.102 119.325L360.1 119.337L360.597 119.392ZM360.933 120.64L361.266 120.266L361.266 120.266L360.933 120.64ZM367.413 121.024V121.524H367.654L367.804 121.336L367.413 121.024ZM370.437 115.168L370.303 114.687L370.052 114.757L369.966 115.003L370.437 115.168ZM373.701 114.976L374.19 115.08L374.286 114.629L373.845 114.497L373.701 114.976ZM371.781 124V124.5H372.186L372.27 124.104L371.781 124ZM349.701 124L349.205 123.939L349.137 124.5H349.701V124ZM350.02 122.526C350.839 122.395 351.531 122.228 352.085 122.02L351.734 121.084C351.264 121.26 350.644 121.413 349.862 121.538L350.02 122.526ZM352.11 122.01C352.674 121.763 353.212 121.414 353.725 120.97L353.07 120.214C352.623 120.602 352.169 120.893 351.709 121.094L352.11 122.01ZM353.891 120.67L357.875 95.4701L356.888 95.3139L352.904 120.514L353.891 120.67ZM357.772 95.0797C357.441 94.6665 356.922 94.3379 356.279 94.0672L355.891 94.9888C356.465 95.2301 356.81 95.4775 356.991 95.7043L357.772 95.0797ZM356.309 94.0808C355.682 93.7675 355.006 93.5602 354.284 93.457L354.143 94.447C354.764 94.5358 355.336 94.7125 355.862 94.9752L356.309 94.0808ZM354.708 94.0244L354.996 92.0564L354.007 91.9116L353.719 93.8796L354.708 94.0244ZM354.501 92.484H368.709V91.484H354.501V92.484ZM368.215 91.9116L367.927 93.8796L368.916 94.0244L369.204 92.0564L368.215 91.9116ZM368.334 93.4598C367.42 93.623 366.624 93.8209 365.952 94.0561L366.283 94.9999C366.891 94.7871 367.631 94.601 368.509 94.4442L368.334 93.4598ZM365.967 94.0512C365.305 94.2603 364.694 94.5743 364.137 94.992L364.737 95.792C365.204 95.4417 365.714 95.1797 366.268 95.0048L365.967 94.0512ZM363.944 95.313L360.104 119.313L361.091 119.471L364.931 95.471L363.944 95.313ZM360.1 119.337C360.028 119.989 360.14 120.603 360.601 121.014L361.266 120.266C361.151 120.165 361.039 119.947 361.094 119.447L360.1 119.337ZM360.601 121.014C360.831 121.218 361.133 121.341 361.458 121.415C361.787 121.491 362.175 121.524 362.613 121.524V120.524C362.22 120.524 361.912 120.493 361.681 120.441C361.446 120.387 361.323 120.318 361.266 120.266L360.601 121.014ZM362.613 121.524H367.413V120.524H362.613V121.524ZM367.804 121.336C369.002 119.838 370.034 117.83 370.909 115.333L369.966 115.003C369.113 117.434 368.128 119.33 367.023 120.712L367.804 121.336ZM370.572 115.649C371.338 115.435 372.028 115.332 372.645 115.332V114.332C371.919 114.332 371.137 114.453 370.303 114.687L370.572 115.649ZM372.645 115.332C372.988 115.332 373.291 115.375 373.558 115.455L373.845 114.497C373.472 114.385 373.071 114.332 372.645 114.332V115.332ZM373.212 114.872L371.292 123.896L372.27 124.104L374.19 115.08L373.212 114.872ZM371.781 123.5H349.701V124.5H371.781V123.5ZM350.198 124.061L350.438 122.093L349.445 121.971L349.205 123.939L350.198 124.061ZM378.687 123.64L378.939 123.208L378.939 123.208L378.687 123.64ZM376.599 121.408L376.156 121.64L376.159 121.644L376.599 121.408ZM376.959 111.724L376.503 111.521L376.503 111.521L376.959 111.724ZM380.307 107.728L380.577 108.149L380.582 108.146L380.307 107.728ZM389.343 107.008L389.178 107.48L389.394 107.556L389.593 107.441L389.343 107.008ZM393.519 106.396L394.014 106.469L394.091 105.951L393.569 105.898L393.519 106.396ZM393.375 107.368L393.868 107.454L393.87 107.441L393.375 107.368ZM392.043 115.468L391.55 115.39L391.55 115.39L392.043 115.468ZM392.871 121.372L392.724 120.894L392.724 120.894L392.871 121.372ZM393.735 120.976L394.208 120.814L394.003 120.213L393.467 120.554L393.735 120.976ZM394.203 122.344L394.472 122.766L394.804 122.555L394.676 122.182L394.203 122.344ZM391.755 123.676L391.957 124.133L391.963 124.131L391.755 123.676ZM386.931 123.604L386.597 123.976L386.607 123.984L386.617 123.993L386.931 123.604ZM386.211 121.984H386.711V120.401L385.802 121.697L386.211 121.984ZM387.003 115.036L387.496 115.123L387.496 115.121L387.003 115.036ZM388.155 108.376L388.648 108.461L388.719 108.053L388.331 107.908L388.155 108.376ZM383.655 109.168L383.986 109.543L383.992 109.537L383.655 109.168ZM381.711 112.48L382.187 112.636L382.187 112.634L381.711 112.48ZM381.567 121.084L381.123 121.313L381.129 121.324L381.567 121.084ZM381.531 123.896C380.585 123.896 379.724 123.666 378.939 123.208L378.435 124.072C379.378 124.622 380.414 124.896 381.531 124.896V123.896ZM378.939 123.208C378.164 122.756 377.53 122.084 377.04 121.172L376.159 121.644C376.725 122.7 377.483 123.516 378.435 124.072L378.939 123.208ZM377.042 121.176C376.56 120.256 376.307 119.116 376.307 117.736H375.307C375.307 119.236 375.582 120.544 376.156 121.64L377.042 121.176ZM376.307 117.736C376.307 115.512 376.682 113.579 377.416 111.927L376.503 111.521C375.701 113.325 375.307 115.4 375.307 117.736H376.307ZM377.416 111.927C378.148 110.28 379.203 109.028 380.577 108.149L380.038 107.307C378.484 108.3 377.307 109.712 376.503 111.521L377.416 111.927ZM380.582 108.146C381.95 107.249 383.615 106.788 385.599 106.788V105.788C383.456 105.788 381.592 106.287 380.033 107.31L380.582 108.146ZM385.599 106.788C386.658 106.788 387.849 107.013 389.178 107.48L389.509 106.536C388.102 106.043 386.797 105.788 385.599 105.788V106.788ZM389.593 107.441C390.288 107.041 391.202 106.824 392.367 106.824V105.824C391.085 105.824 389.983 106.063 389.094 106.575L389.593 107.441ZM392.367 106.824C392.631 106.824 392.997 106.846 393.47 106.894L393.569 105.898C393.082 105.85 392.679 105.824 392.367 105.824V106.824ZM393.025 106.323L392.881 107.295L393.87 107.441L394.014 106.469L393.025 106.323ZM392.883 107.282C392.498 109.494 392.054 112.196 391.55 115.39L392.537 115.546C393.041 112.356 393.485 109.658 393.868 107.454L392.883 107.282ZM391.55 115.39C391.297 116.987 391.108 118.232 390.981 119.124C390.858 119.994 390.787 120.572 390.787 120.796H391.787C391.787 120.66 391.843 120.17 391.971 119.264C392.097 118.38 392.285 117.141 392.537 115.546L391.55 115.39ZM390.787 120.796C390.787 121.119 390.874 121.452 391.132 121.698C391.385 121.939 391.72 122.016 392.043 122.016V121.016C391.956 121.016 391.898 121.005 391.864 120.994C391.832 120.984 391.822 120.975 391.821 120.974C391.821 120.974 391.814 120.968 391.807 120.946C391.798 120.921 391.787 120.874 391.787 120.796H390.787ZM392.043 122.016C392.348 122.016 392.675 121.956 393.018 121.85L392.724 120.894C392.444 120.98 392.219 121.016 392.043 121.016V122.016ZM393.018 121.85C393.371 121.741 393.7 121.591 394.004 121.398L393.467 120.554C393.242 120.697 392.995 120.811 392.724 120.894L393.018 121.85ZM393.262 121.138L393.73 122.506L394.676 122.182L394.208 120.814L393.262 121.138ZM393.935 121.922C393.162 122.414 392.366 122.847 391.548 123.221L391.963 124.131C392.825 123.737 393.661 123.282 394.472 122.766L393.935 121.922ZM391.554 123.219C390.806 123.548 389.987 123.716 389.091 123.716V124.716C390.116 124.716 391.073 124.524 391.957 124.133L391.554 123.219ZM389.091 123.716C388.22 123.716 387.629 123.525 387.246 123.215L386.617 123.993C387.242 124.499 388.09 124.716 389.091 124.716V123.716ZM387.266 123.232C386.892 122.896 386.711 122.491 386.711 121.984H385.711C385.711 122.773 386.011 123.448 386.597 123.976L387.266 123.232ZM385.802 121.697C384.769 123.169 383.363 123.896 381.531 123.896V124.896C383.684 124.896 385.398 124.015 386.621 122.271L385.802 121.697ZM383.151 122.7C384.29 122.7 385.175 121.902 385.851 120.646C386.531 119.382 387.073 117.529 387.496 115.123L386.511 114.949C386.094 117.319 385.574 119.048 384.97 120.172C384.362 121.304 383.741 121.7 383.151 121.7V122.7ZM387.496 115.121L388.648 108.461L387.663 108.291L386.511 114.951L387.496 115.121ZM388.331 107.908C387.703 107.672 387.067 107.552 386.427 107.552V108.552C386.939 108.552 387.456 108.648 387.98 108.844L388.331 107.908ZM386.427 107.552C385.262 107.552 384.22 107.977 383.319 108.799L383.992 109.537C384.723 108.871 385.529 108.552 386.427 108.552V107.552ZM383.325 108.793C382.418 109.593 381.732 110.788 381.236 112.326L382.187 112.634C382.651 111.196 383.261 110.183 383.986 109.543L383.325 108.793ZM381.236 112.324C380.735 113.853 380.491 115.697 380.491 117.844H381.491C381.491 115.767 381.728 114.035 382.187 112.636L381.236 112.324ZM380.491 117.844C380.491 119.292 380.685 120.465 381.123 121.313L382.012 120.855C381.681 120.215 381.491 119.228 381.491 117.844H380.491ZM381.129 121.324C381.593 122.171 382.264 122.7 383.151 122.7V121.7C382.743 121.7 382.357 121.485 382.006 120.844L381.129 121.324ZM397.392 110.824L396.896 110.888L396.896 110.89L397.392 110.824ZM395.016 108.628L394.525 108.72L394.602 109.135L395.025 109.128L395.016 108.628ZM394.8 107.476L394.531 107.054L394.246 107.236L394.309 107.568L394.8 107.476ZM396.996 106.684L396.895 106.194L396.895 106.194L396.996 106.684ZM401.316 106.432L401.812 106.366L401.759 105.967L401.357 105.934L401.316 106.432ZM403.044 119.464L402.548 119.53L402.734 120.93L403.471 119.725L403.044 119.464ZM405.888 114.496L405.444 114.265L405.441 114.272L405.888 114.496ZM407.076 111.508L406.589 111.397L406.589 111.397L407.076 111.508ZM407.364 106.828L407.282 106.335L406.864 106.404V106.828H407.364ZM411.288 106.576L411.783 106.509L411.725 106.076H411.288V106.576ZM413.052 119.68L412.556 119.747L412.738 121.095L413.473 119.95L413.052 119.68ZM416.904 113.092L416.454 112.874L416.453 112.877L416.904 113.092ZM416.364 108.268L415.867 108.322L415.913 108.749L416.342 108.768L416.364 108.268ZM416.22 106.936L416.075 106.457L415.678 106.577L415.723 106.99L416.22 106.936ZM421.728 106.432L422.146 106.158L422.024 105.972L421.804 105.938L421.728 106.432ZM422.34 107.368H422.84V107.219L422.758 107.094L422.34 107.368ZM421.332 110.392L420.876 110.186L420.874 110.192L421.332 110.392ZM419.064 114.568L419.479 114.847L419.48 114.845L419.064 114.568ZM412.548 124.252V124.752H412.814L412.963 124.531L412.548 124.252ZM409.164 124L408.668 124.066L408.715 124.414L409.057 124.488L409.164 124ZM408.048 115.612L408.544 115.546L408.363 114.188L407.626 115.343L408.048 115.612ZM402.54 124.252L402.595 124.749L402.833 124.723L402.962 124.521L402.54 124.252ZM399.156 124L398.66 124.066L398.703 124.384L399.009 124.478L399.156 124ZM397.888 110.76C397.783 109.945 397.504 109.264 396.993 108.792C396.478 108.315 395.793 108.115 395.007 108.128L395.025 109.128C395.631 109.117 396.038 109.271 396.315 109.526C396.596 109.786 396.809 110.215 396.896 110.888L397.888 110.76ZM395.507 108.536L395.291 107.384L394.309 107.568L394.525 108.72L395.507 108.536ZM395.068 107.898C395.525 107.607 396.192 107.359 397.096 107.174L396.895 106.194C395.928 106.393 395.131 106.673 394.531 107.054L395.068 107.898ZM397.096 107.174C397.996 106.989 398.958 106.896 399.984 106.896V105.896C398.898 105.896 397.868 105.995 396.895 106.194L397.096 107.174ZM399.984 106.896C400.581 106.896 401.008 106.908 401.274 106.93L401.357 105.934C401.048 105.908 400.586 105.896 399.984 105.896V106.896ZM400.82 106.498L402.548 119.53L403.54 119.398L401.812 106.366L400.82 106.498ZM403.471 119.725C404.792 117.562 405.749 115.891 406.335 114.72L405.441 114.272C404.875 115.405 403.936 117.046 402.617 119.203L403.471 119.725ZM406.331 114.727C406.942 113.554 407.358 112.516 407.563 111.619L406.589 111.397C406.41 112.18 406.034 113.134 405.444 114.265L406.331 114.727ZM407.563 111.619C407.766 110.731 407.864 109.659 407.864 108.412H406.864C406.864 109.613 406.769 110.605 406.589 111.397L407.563 111.619ZM407.864 108.412V106.828H406.864V108.412H407.864ZM407.446 107.321C408.416 107.16 409.694 107.076 411.288 107.076V106.076C409.666 106.076 408.328 106.16 407.282 106.335L407.446 107.321ZM410.792 106.643L412.556 119.747L413.547 119.613L411.783 106.509L410.792 106.643ZM413.473 119.95C415.323 117.067 416.621 114.849 417.355 113.307L416.453 112.877C415.747 114.359 414.477 116.533 412.631 119.41L413.473 119.95ZM417.354 113.31C418.101 111.767 418.52 110.514 418.52 109.6H417.52C417.52 110.27 417.195 111.345 416.454 112.874L417.354 113.31ZM418.52 109.6C418.52 109.06 418.336 108.582 417.919 108.247C417.525 107.931 416.988 107.795 416.386 107.768L416.342 108.768C416.843 108.789 417.134 108.899 417.293 109.027C417.428 109.136 417.52 109.3 417.52 109.6H418.52ZM416.861 108.214L416.717 106.882L415.723 106.99L415.867 108.322L416.861 108.214ZM416.364 107.415C417.586 107.046 418.893 106.86 420.288 106.86V105.86C418.803 105.86 417.398 106.058 416.075 106.457L416.364 107.415ZM420.288 106.86C420.931 106.86 421.379 106.884 421.652 106.926L421.804 105.938C421.452 105.884 420.941 105.86 420.288 105.86V106.86ZM421.309 106.706L421.921 107.642L422.758 107.094L422.146 106.158L421.309 106.706ZM421.84 107.368C421.84 107.548 421.778 107.868 421.614 108.362C421.453 108.844 421.209 109.45 420.876 110.186L421.788 110.598C422.127 109.846 422.387 109.204 422.562 108.678C422.734 108.164 422.84 107.716 422.84 107.368H421.84ZM420.874 110.192C420.237 111.654 419.495 113.02 418.648 114.291L419.48 114.845C420.361 113.524 421.131 112.106 421.79 110.592L420.874 110.192ZM418.649 114.289L412.133 123.973L412.963 124.531L419.479 114.847L418.649 114.289ZM412.548 123.752C411.07 123.752 409.985 123.668 409.271 123.512L409.057 124.488C409.879 124.668 411.05 124.752 412.548 124.752V123.752ZM409.66 123.934L408.544 115.546L407.552 115.678L408.668 124.066L409.66 123.934ZM407.626 115.343L402.118 123.983L402.962 124.521L408.47 115.881L407.626 115.343ZM402.485 123.755C402.298 123.776 401.985 123.788 401.532 123.788V124.788C401.991 124.788 402.35 124.776 402.595 124.749L402.485 123.755ZM401.532 123.788C400.601 123.788 399.863 123.694 399.303 123.522L399.009 124.478C399.697 124.69 400.543 124.788 401.532 124.788V123.788ZM399.652 123.934L397.888 110.758L396.896 110.89L398.66 124.066L399.652 123.934Z" fill="#E2B358"/>
</svg>
