<svg width="143" height="90" viewBox="0 0 143 90" fill="none" xmlns="http://www.w3.org/2000/svg">
<path d="M5.30001 71H39.4L40.3 67H4.40001L5.30001 71Z" fill="#E2B358"/>
<path d="M103.6 71H137.6L138.5 67H102.7L103.6 71Z" fill="#E2B358"/>
<path d="M39 64L24.3 38H24.5L22.9 35.6L6.50001 64H0.100006L2.60001 75H41.6L41.9 73.5L44.6 64H39ZM22.8 39.2L37 64H8.40001L22.8 39.2ZM39.4 71H5.30001L4.40001 67H40.3L39.4 71Z" fill="#333333"/>
<path d="M137.2 64L121 36L119.5 38H119.7L119.9 38.3V38H119.4L104.6 64H98.2L101.2 75H140.2L140.5 73.5L142.7 64H137.2ZM121 39.2L135.3 64H106.7L121 39.2ZM137.6 71H103.5L102.6 67H138.5L137.6 71Z" fill="#333333"/>
<path d="M102.7 39H79.4H65H41.6L60.5 52.7L53.3 74.8L72.2 61.1L91 74.8L83.8 52.7L102.7 39Z" fill="#E2B358"/>
<path d="M119.9 33H83.4H60.9H24.4L53.9 54.6L42.6 89.4L72.2 68L101.7 89.5L90.4 54.6L119.9 33ZM91 74.8L72.2 61.1L53.3 74.8L60.5 52.7L41.6 39H65H79.4H102.7L83.8 52.7L91 74.8Z" fill="#333333"/>
<path d="M72.2 29.3C80.1 29.3 86.6 22.9 86.6 14.9C86.6 7 80.2 0.5 72.2 0.5C64.2 0.5 57.8 7 57.8 14.9C57.8 22.9 64.2 29.3 72.2 29.3ZM72.2 6.1C77.1 6.1 81 10.1 81 14.9C81 19.8 77 23.7 72.2 23.7C67.3 23.7 63.4 19.7 63.4 14.9C63.3 10.1 67.3 6.1 72.2 6.1Z" fill="#333333"/>
<path d="M72.2 23.8C77.1 23.8 81 19.8 81 15C81 10.1 77 6.2 72.2 6.2C67.3 6.2 63.4 10.2 63.4 15C63.3 19.8 67.3 23.8 72.2 23.8Z" fill="#E2B358"/>
</svg>
