<svg width="150" height="120" viewBox="0 0 150 120" fill="none" xmlns="http://www.w3.org/2000/svg">
<path d="M40.9187 85.618L25.4558 50.5618H25.6662L23.9832 47.3258L6.73212 85.618H0L2.62973 100.449H43.6536L43.9691 98.427L46.8093 85.618H40.9187ZM23.878 52.1798L38.8149 85.618H8.73071L23.878 52.1798ZM41.3394 95.0562H5.46985L4.52314 89.6629H42.2861L41.3394 95.0562Z" fill="#333333"/>
<path d="M144.215 85.618L127.174 47.8652L125.596 50.5618H125.806L126.017 50.9663V50.5618H125.491L109.923 85.618H103.191L106.346 100.449H147.37L147.686 98.427L150 85.618H144.215ZM127.174 52.1798L142.216 85.618H112.132L127.174 52.1798ZM144.635 95.0562H108.766L107.819 89.6629H145.582L144.635 95.0562Z" fill="#333333"/>
<path d="M126.017 43.8202H87.6227H63.9551H25.561L56.5919 72.9438L44.7055 119.865L75.8415 91.0112L106.872 120L94.986 72.9438L126.017 43.8202ZM95.6171 100.18L75.8415 81.7079L55.9607 100.18L63.5344 70.382L43.6536 51.9101H68.2679H83.4151H107.924L88.0435 70.382L95.6171 100.18Z" fill="#333333"/>
<path d="M75.8415 38.8315C84.1515 38.8315 90.9888 30.2023 90.9888 19.4157C90.9888 8.76405 84.2567 0 75.8415 0C67.4264 0 60.6942 8.76405 60.6942 19.4157C60.6942 30.2023 67.4264 38.8315 75.8415 38.8315ZM75.8415 7.55056C80.9958 7.55056 85.0982 12.9438 85.0982 19.4157C85.0982 26.0225 80.8906 31.2809 75.8415 31.2809C70.6872 31.2809 66.5848 25.8876 66.5848 19.4157C66.4797 12.9438 70.6872 7.55056 75.8415 7.55056Z" fill="#333333"/>
</svg>
