<svg width="170" height="208" viewBox="0 0 170 208" fill="none" xmlns="http://www.w3.org/2000/svg">
<g clip-path="url(#clip0)">
<g filter="url(#filter0_d)">
<rect width="170" height="208" rx="16" fill="white"/>
</g>
<path d="M87 53L79.9466 56.7082L81.2937 48.8541L75.5873 43.2918L83.4733 42.1459L87 35L90.5267 42.1459L98.4127 43.2918L92.7063 48.8541L94.0534 56.7082L87 53Z" fill="#E2B358"/>
<path d="M16.36 56.84L16.04 55.4L26.12 36.72C28.2533 36.8267 29.9867 37.2933 31.32 38.12L21.8 53.8H27.92L28.32 47.28C29.1733 47.28 29.7867 47.1067 30.16 46.76C30.56 46.4133 30.8667 45.8267 31.08 45H33.36L33.32 54C34.3333 54.2933 35.6133 54.6 37.16 54.92L36.96 56.84H33.12V64H27.92V56.84H16.36ZM39.4694 68.2C40.296 67.5867 40.9627 66.8933 41.4694 66.12C41.976 65.3733 42.2294 64.6933 42.2294 64.08C42.2294 63.68 42.136 63.3867 41.9494 63.2C41.7627 62.9867 41.5094 62.88 41.1894 62.88C40.976 62.88 40.7094 62.9467 40.3894 63.08C39.8027 62.52 39.5094 61.8 39.5094 60.92C39.5094 60.28 39.7627 59.7067 40.2694 59.2C40.8027 58.6667 41.4694 58.4 42.2694 58.4C43.3627 58.4 44.1894 58.72 44.7494 59.36C45.3094 59.9733 45.5894 60.8133 45.5894 61.88C45.5894 65.1067 43.9227 67.68 40.5894 69.6L39.4694 68.2ZM51.5663 62.44C54.2329 61.2933 56.3796 59.8267 58.0063 58.04C59.6329 56.2267 60.7129 54.12 61.2463 51.72C59.7529 52.4667 58.2996 52.84 56.8863 52.84C54.2196 52.84 52.1129 52.12 50.5663 50.68C49.0463 49.24 48.2863 47.2933 48.2863 44.84C48.2863 43.32 48.6863 41.96 49.4863 40.76C50.3129 39.56 51.4463 38.6267 52.8863 37.96C54.3529 37.2933 56.0196 36.96 57.8863 36.96C61.0596 36.96 63.4863 37.84 65.1663 39.6C66.8729 41.36 67.7263 43.9067 67.7263 47.24C67.7263 51.4267 66.4196 55 63.8063 57.96C61.2196 60.8933 57.4596 63.0533 52.5263 64.44L51.5663 62.44ZM58.0063 50.04C59.0996 50.04 60.3129 49.5867 61.6463 48.68V48.16C61.6463 45.2533 61.3263 43.12 60.6863 41.76C60.0463 40.4 59.0329 39.72 57.6463 39.72C56.4996 39.72 55.6196 40.16 55.0063 41.04C54.3929 41.92 54.0863 43.1733 54.0863 44.8C54.0863 46.4533 54.4196 47.7467 55.0863 48.68C55.7796 49.5867 56.7529 50.04 58.0063 50.04Z" fill="#333333"/>
<rect x="16" y="119" width="118" height="8" rx="4" fill="#E8E8E8"/>
<rect x="16" y="119" width="98" height="8" rx="4" fill="#96BE9E"/>
<path d="M150.07 128.128C149.462 128.128 148.913 128.043 148.422 127.872C147.932 127.691 147.548 127.44 147.27 127.12C146.993 126.8 146.854 126.437 146.854 126.032C146.854 125.723 146.934 125.483 147.094 125.312C147.265 125.131 147.489 125.04 147.766 125.04C148.076 125.04 148.337 125.125 148.55 125.296C148.454 125.541 148.406 125.76 148.406 125.952C148.406 126.357 148.561 126.688 148.87 126.944C149.18 127.2 149.58 127.328 150.07 127.328C150.71 127.328 151.196 127.099 151.526 126.64C151.857 126.181 152.022 125.509 152.022 124.624C152.022 123.845 151.846 123.248 151.494 122.832C151.142 122.416 150.641 122.208 149.99 122.208C149.297 122.208 148.588 122.416 147.862 122.832L147.366 122.304L147.782 117.504L148.102 117.28L148.598 117.296C149.793 117.317 150.422 117.328 150.486 117.328C151.094 117.328 151.761 117.317 152.486 117.296L152.806 117.52L152.678 118.464H148.662L148.374 121.728C148.982 121.472 149.606 121.344 150.246 121.344C151.228 121.344 152.001 121.632 152.566 122.208C153.132 122.773 153.414 123.579 153.414 124.624C153.414 125.264 153.276 125.856 152.998 126.4C152.721 126.933 152.326 127.355 151.814 127.664C151.302 127.973 150.721 128.128 150.07 128.128Z" fill="#333333" fill-opacity="0.5"/>
<rect x="16" y="143" width="118" height="8" rx="4" fill="#E8E8E8"/>
<rect x="16" y="143" width="80" height="8" rx="4" fill="#3F82D8"/>
<path d="M146.381 149.072L146.269 148.528L150.125 141.12C150.562 141.141 151 141.291 151.437 141.568L147.533 148.192H150.957V145.072C151.213 145.061 151.437 144.997 151.629 144.88C151.832 144.763 151.965 144.603 152.029 144.4H152.381V148.16C152.669 148.256 153.133 148.357 153.773 148.464L153.693 149.072H152.301V152H150.957V149.072H146.381Z" fill="#333333" fill-opacity="0.5"/>
<rect x="16" y="167" width="118" height="8" rx="4" fill="#E8E8E8"/>
<rect x="16" y="167" width="65" height="8" rx="4" fill="#A16E62"/>
<path d="M150.193 176.112C149.19 176.112 148.401 175.92 147.825 175.536C147.26 175.141 146.977 174.603 146.977 173.92C146.977 173.653 147.062 173.44 147.233 173.28C147.404 173.109 147.628 173.024 147.905 173.024C148.161 173.024 148.412 173.115 148.657 173.296C148.572 173.531 148.529 173.755 148.529 173.968C148.529 174.384 148.684 174.715 148.993 174.96C149.313 175.205 149.74 175.328 150.273 175.328C150.817 175.328 151.244 175.131 151.553 174.736C151.862 174.331 152.017 173.781 152.017 173.088C152.017 172.352 151.777 171.781 151.297 171.376C150.817 170.96 150.145 170.752 149.281 170.752V170.048C150.113 170.027 150.742 169.829 151.169 169.456C151.606 169.083 151.825 168.555 151.825 167.872C151.825 167.285 151.692 166.837 151.425 166.528C151.169 166.219 150.796 166.064 150.305 166.064C149.846 166.064 149.473 166.187 149.185 166.432C148.908 166.677 148.769 167.003 148.769 167.408C148.769 167.664 148.828 167.867 148.945 168.016C148.689 168.208 148.417 168.304 148.129 168.304C147.894 168.304 147.708 168.213 147.569 168.032C147.441 167.84 147.377 167.584 147.377 167.264C147.377 166.901 147.505 166.565 147.761 166.256C148.028 165.947 148.385 165.707 148.833 165.536C149.292 165.355 149.793 165.264 150.337 165.264C151.222 165.264 151.937 165.504 152.481 165.984C153.025 166.464 153.297 167.093 153.297 167.872C153.297 168.469 153.121 168.981 152.769 169.408C152.417 169.835 151.894 170.16 151.201 170.384C152.684 170.779 153.425 171.685 153.425 173.104C153.425 173.691 153.286 174.213 153.009 174.672C152.742 175.12 152.364 175.472 151.873 175.728C151.382 175.984 150.822 176.112 150.193 176.112Z" fill="#333333" fill-opacity="0.5"/>
</g>
<defs>
<filter id="filter0_d" x="-64" y="-40" width="298" height="336" filterUnits="userSpaceOnUse" color-interpolation-filters="sRGB">
<feFlood flood-opacity="0" result="BackgroundImageFix"/>
<feColorMatrix in="SourceAlpha" type="matrix" values="0 0 0 0 0 0 0 0 0 0 0 0 0 0 0 0 0 0 127 0"/>
<feOffset dy="24"/>
<feGaussianBlur stdDeviation="32"/>
<feColorMatrix type="matrix" values="0 0 0 0 0.15912 0 0 0 0 0.158552 0 0 0 0 0 0 0 0 0.0985337 0"/>
<feBlend mode="normal" in2="BackgroundImageFix" result="effect1_dropShadow"/>
<feBlend mode="normal" in="SourceGraphic" in2="effect1_dropShadow" result="shape"/>
</filter>
<clipPath id="clip0">
<rect width="170" height="208" fill="white"/>
</clipPath>
</defs>
</svg>
